<svg id="Group_11" data-name="Group 11" xmlns="http://www.w3.org/2000/svg" width="448.919" height="231.435" viewBox="0 0 448.919 231.435">
  <path id="Path_347" data-name="Path 347" d="M599.985,679.844H152.258a.6.6,0,0,1,0-1.192H599.985a.6.6,0,1,1,0,1.192Z" transform="translate(-151.662 -448.46)" fill="#3f3d56"/>
  <circle id="Ellipse_60" data-name="Ellipse 60" cx="3.238" cy="3.238" r="3.238" transform="translate(137.121 22.286)" fill="#f2f2f2"/>
  <circle id="Ellipse_61" data-name="Ellipse 61" cx="3.238" cy="3.238" r="3.238" transform="translate(124.217 22.286)" fill="#f2f2f2"/>
  <circle id="Ellipse_62" data-name="Ellipse 62" cx="3.238" cy="3.238" r="3.238" transform="translate(111.314 22.286)" fill="#f2f2f2"/>
  <circle id="Ellipse_63" data-name="Ellipse 63" cx="3.238" cy="3.238" r="3.238" transform="translate(98.411 22.286)" fill="#f2f2f2"/>
  <circle id="Ellipse_64" data-name="Ellipse 64" cx="3.238" cy="3.238" r="3.238" transform="translate(137.121 35.803)" fill="#f2f2f2"/>
  <circle id="Ellipse_65" data-name="Ellipse 65" cx="3.238" cy="3.238" r="3.238" transform="translate(124.217 35.803)" fill="#f2f2f2"/>
  <circle id="Ellipse_66" data-name="Ellipse 66" cx="3.238" cy="3.238" r="3.238" transform="translate(111.314 35.803)" fill="#f2f2f2"/>
  <circle id="Ellipse_67" data-name="Ellipse 67" cx="3.238" cy="3.238" r="3.238" transform="translate(98.411 35.803)" fill="#f2f2f2"/>
  <circle id="Ellipse_68" data-name="Ellipse 68" cx="3.238" cy="3.238" r="3.238" transform="translate(137.121 49.32)" fill="#f2f2f2"/>
  <circle id="Ellipse_69" data-name="Ellipse 69" cx="3.238" cy="3.238" r="3.238" transform="translate(124.217 49.32)" fill="#f2f2f2"/>
  <circle id="Ellipse_70" data-name="Ellipse 70" cx="3.238" cy="3.238" r="3.238" transform="translate(111.314 49.32)" fill="#f2f2f2"/>
  <circle id="Ellipse_71" data-name="Ellipse 71" cx="3.238" cy="3.238" r="3.238" transform="translate(98.411 49.32)" fill="#f2f2f2"/>
  <circle id="Ellipse_72" data-name="Ellipse 72" cx="3.238" cy="3.238" r="3.238" transform="translate(137.121 62.838)" fill="#f2f2f2"/>
  <circle id="Ellipse_73" data-name="Ellipse 73" cx="3.238" cy="3.238" r="3.238" transform="translate(124.217 62.838)" fill="#f2f2f2"/>
  <circle id="Ellipse_74" data-name="Ellipse 74" cx="3.238" cy="3.238" r="3.238" transform="translate(111.314 62.838)" fill="#f2f2f2"/>
  <circle id="Ellipse_75" data-name="Ellipse 75" cx="3.238" cy="3.238" r="3.238" transform="translate(98.411 62.838)" fill="#f2f2f2"/>
  <circle id="Ellipse_76" data-name="Ellipse 76" cx="3.238" cy="3.238" r="3.238" transform="translate(137.121 76.355)" fill="#f2f2f2"/>
  <circle id="Ellipse_77" data-name="Ellipse 77" cx="3.238" cy="3.238" r="3.238" transform="translate(124.217 76.355)" fill="#f2f2f2"/>
  <circle id="Ellipse_78" data-name="Ellipse 78" cx="3.238" cy="3.238" r="3.238" transform="translate(111.314 76.355)" fill="#f2f2f2"/>
  <circle id="Ellipse_79" data-name="Ellipse 79" cx="3.238" cy="3.238" r="3.238" transform="translate(98.411 76.355)" fill="#f2f2f2"/>
  <circle id="Ellipse_80" data-name="Ellipse 80" cx="3.238" cy="3.238" r="3.238" transform="translate(137.121 89.873)" fill="#f2f2f2"/>
  <circle id="Ellipse_81" data-name="Ellipse 81" cx="3.238" cy="3.238" r="3.238" transform="translate(124.217 89.873)" fill="#f2f2f2"/>
  <circle id="Ellipse_82" data-name="Ellipse 82" cx="3.238" cy="3.238" r="3.238" transform="translate(111.314 89.873)" fill="#f2f2f2"/>
  <circle id="Ellipse_83" data-name="Ellipse 83" cx="3.238" cy="3.238" r="3.238" transform="translate(98.411 89.873)" fill="#f2f2f2"/>
  <path id="Path_348" data-name="Path 348" d="M375.19,575.022v1a6.264,6.264,0,0,0,6.258,6.258h45.058a6.261,6.261,0,0,0,6.258-6.258v-1a6.213,6.213,0,0,0-1.452-4.005,6.44,6.44,0,0,0-1.056-1s-24.772-.561-24.772-1.252H381.449a6.267,6.267,0,0,0-6.258,6.258Z" transform="translate(-263.282 -393.587)" fill="#ccc"/>
  <rect id="Rectangle_55" data-name="Rectangle 55" width="6.508" height="42.054" transform="translate(137.804 188.445)" fill="#ccc"/>
  <path id="Path_349" data-name="Path 349" d="M432.971,672.547c0,.7-9.862.272-22.029.272s-22.029.431-22.029-.272,9.862-6.28,22.029-6.28S432.971,671.844,432.971,672.547Z" transform="translate(-270.134 -442.276)" fill="#ccc"/>
  <path id="Path_350" data-name="Path 350" d="M432.9,524.683A5.378,5.378,0,0,0,431,516.659l-13.794-47L406.7,474.8l16.862,44.585a5.407,5.407,0,0,0,9.342,5.3Z" transform="translate(-279.016 -344.097)" fill="#a0616a"/>
  <path id="Path_351" data-name="Path 351" d="M417.534,466.032l-11.757,3.183a2.412,2.412,0,0,1-3.025-2.045l-1.421-12.059a6.7,6.7,0,1,1,12.94-3.462l4.843,11.092a2.412,2.412,0,0,1-1.58,3.292Z" transform="translate(-276.221 -332.625)" fill="#6c63ff"/>
  <path id="Path_352" data-name="Path 352" d="M313.515,434.223h6.138l2.92-15.919h-9.059Z" transform="translate(-156.554 -208.881)" fill="#a0616a"/>
  <path id="Path_353" data-name="Path 353" d="M462.051,664.962h12.088a7.7,7.7,0,0,1,7.7,7.7v.25H462.051Z" transform="translate(-306.656 -441.624)" fill="#2f2e41"/>
  <path id="Path_354" data-name="Path 354" d="M438.045,594.1q-.107,0-.215-.01l-8.494-.618a2.253,2.253,0,0,1-1.907-3.019l11.368-25.54a1.751,1.751,0,0,0-.1-1.4,1.728,1.728,0,0,0-1.107-.881c-5.346-1.4-19.061-5.118-30.933-9.471-5.087-1.865-8.29-4.561-9.522-8.011a11.308,11.308,0,0,1,.881-8.872l.081-.136,11.172,1.016,12.111,1.03,26.541,14.232a10.056,10.056,0,0,1,4.415,12.909L440.1,592.768A2.251,2.251,0,0,1,438.045,594.1Z" transform="translate(-273.96 -377.297)" fill="#2f2e41"/>
  <circle id="Ellipse_84" data-name="Ellipse 84" cx="12.296" cy="12.296" r="12.296" transform="translate(124.956 84.737)" fill="#a0616a"/>
  <path id="Path_355" data-name="Path 355" d="M306.515,433.223h6.138l2.92-15.919h-9.059Z" transform="translate(-153.058 -208.382)" fill="#a0616a"/>
  <path id="Path_356" data-name="Path 356" d="M455.051,663.962h12.088a7.7,7.7,0,0,1,7.7,7.7v.25H455.051Z" transform="translate(-303.16 -441.124)" fill="#2f2e41"/>
  <path id="Path_357" data-name="Path 357" d="M431.045,597.1q-.107,0-.215-.01l-8.494-.618a2.253,2.253,0,0,1-1.907-3.019l11.368-25.54a1.751,1.751,0,0,0-.1-1.4,1.728,1.728,0,0,0-1.107-.881c-5.345-1.4-19.061-5.118-30.933-9.471-5.087-1.865-8.29-4.561-9.522-8.011a11.308,11.308,0,0,1,.881-8.872l.081-.136,11.172,1.016,12.111,1.03,26.541,14.232a10.056,10.056,0,0,1,4.415,12.909L433.1,595.768A2.251,2.251,0,0,1,431.045,597.1Z" transform="translate(-270.464 -378.796)" fill="#2f2e41"/>
  <path id="Path_358" data-name="Path 358" d="M413.164,446.674l-13.017-4.506s-8.172,6.278-4.246,21.853a38.556,38.556,0,0,1-1.7,24.191,24.92,24.92,0,0,1-1.311,2.769s14.519,17.523,28.036,4.506L415.667,470.2S423.928,453.433,413.164,446.674Z" transform="translate(-272.119 -330.372)" fill="#2f2e41"/>
  <path id="Path_359" data-name="Path 359" d="M409.248,405.56c-1.75-2.62-3.131-6.252-1.2-8.744,1.9-2.46,5.653-2.1,8.566-3.186,4.057-1.516,6.41-6.283,5.676-10.551a12.519,12.519,0,0,0-8.243-9.255,17.847,17.847,0,0,0-12.683.69,19.367,19.367,0,0,0-10.913,11.052A14.89,14.89,0,0,0,393.3,400.5c3.937,4.145,10.116,5.249,15.832,5.182" transform="translate(-270.469 -295.812)" fill="#2f2e41"/>
  <path id="Path_360" data-name="Path 360" d="M349.288,386.76c-2.205,1.8-5.57,1-7.937-.578s-4.288-3.819-6.849-5.054c-4.515-2.178-9.975-.73-14.369,1.682s-8.29,5.745-12.932,7.638-10.566,1.987-14.081-1.588A12.883,12.883,0,0,0,312,404.066c5.086-3.1,7.9-9.594,13.6-11.3,3.157-.946,6.547-.184,9.737.641s6.517,1.717,9.737,1.015,6.232-3.6,5.822-6.866Z" transform="translate(-221.947 -299.357)" fill="#2f2e41"/>
  <path id="Path_361" data-name="Path 361" d="M484.995,597.616a83.863,83.863,0,0,1,0-25.521,2.154,2.154,0,0,1,2.121-1.805h19.962a2.126,2.126,0,0,1,1.68.814,2.163,2.163,0,0,1,.4,1.855,51.231,51.231,0,0,0,0,23.793,2.162,2.162,0,0,1-.4,1.855,2.126,2.126,0,0,1-1.68.814H487.116A2.154,2.154,0,0,1,484.995,597.616Z" transform="translate(-317.625 -394.349)" fill="#6c63ff"/>
  <path id="Path_362" data-name="Path 362" d="M505.862,591.385H495.387a1.5,1.5,0,0,1-1.5-1.5V589.3a1.5,1.5,0,0,1,1.5-1.5h10.475a1.5,1.5,0,0,1,1.5,1.5v.587A1.5,1.5,0,0,1,505.862,591.385Z" transform="translate(-322.552 -403.09)" fill="#fff"/>
  <path id="Path_363" data-name="Path 363" d="M505.862,603.729H495.387a1.5,1.5,0,0,1-1.5-1.5v-.587a1.5,1.5,0,0,1,1.5-1.5h10.475a1.5,1.5,0,0,1,1.5,1.5v.587A1.5,1.5,0,0,1,505.862,603.729Z" transform="translate(-322.552 -409.254)" fill="#fff"/>
  <path id="Path_364" data-name="Path 364" d="M458.716,525.837a5.378,5.378,0,0,0-3.85-7.293l-25.1-42.067-8.886,7.606,27.467,38.958a5.407,5.407,0,0,0,10.369,2.8Z" transform="translate(-286.097 -347.504)" fill="#a0616a"/>
  <path id="Path_365" data-name="Path 365" d="M429.355,473.623l-10.589,6.019a2.412,2.412,0,0,1-3.44-1.225L410.938,467.1A6.7,6.7,0,1,1,422.6,460.51l7.461,9.53a2.412,2.412,0,0,1-.708,3.582Z" transform="translate(-280.699 -337.83)" fill="#2f2e41"/>
  <path id="Path_366" data-name="Path 366" d="M467.647,519.614H264.384a3.254,3.254,0,0,0,0,6.508h5.757v70.842a3.254,3.254,0,1,0,6.508,0V532.375L313.132,598.5a3.254,3.254,0,0,0,5.636-3.254l-38.137-69.123H454.88v.042l-38.114,69.081A3.254,3.254,0,0,0,422.4,598.5l32.478-58.865v57.329a3.254,3.254,0,1,0,6.508,0V527.838l.947-1.716h5.311a3.254,3.254,0,0,0,0-6.508Z" transform="translate(-206.325 -369.044)" fill="#3f3d56"/>
  <rect id="Rectangle_56" data-name="Rectangle 56" width="43.056" height="3.505" rx="1.752" transform="translate(135.91 148.567)" fill="#ccc"/>
  <path id="Path_367" data-name="Path 367" d="M510.941,491.654H466.384a3.258,3.258,0,0,1-3.254-3.254V463.868a3.258,3.258,0,0,1,3.254-3.254h44.558a3.258,3.258,0,0,1,3.254,3.254V488.4A3.258,3.258,0,0,1,510.941,491.654Z" transform="translate(-307.194 -339.582)" fill="#ccc"/>
  <circle id="Ellipse_85" data-name="Ellipse 85" cx="3.004" cy="3.004" r="3.004" transform="translate(178.465 133.548)" fill="#fff"/>
  <path id="Path_368" data-name="Path 368" d="M626.55,310.493V222.63a3.77,3.77,0,0,1,3.766-3.766H699.77a3.77,3.77,0,0,1,3.766,3.766v87.864a3.77,3.77,0,0,1-3.766,3.766H630.316A3.77,3.77,0,0,1,626.55,310.493Zm3.766-90.793a2.932,2.932,0,0,0-2.929,2.929v87.864a2.932,2.932,0,0,0,2.929,2.929H699.77a2.932,2.932,0,0,0,2.929-2.929V222.63a2.932,2.932,0,0,0-2.929-2.929Z" transform="translate(-388.799 -218.864)" fill="#e6e6e6"/>
  <path id="Path_369" data-name="Path 369" d="M711.216,279.589V261.548a1.885,1.885,0,0,1,1.883-1.883h15.288a1.885,1.885,0,0,1,1.883,1.883v18.041a1.885,1.885,0,0,1-1.883,1.883H713.1a1.885,1.885,0,0,1-1.883-1.883Z" transform="translate(-431.076 -239.238)" fill="#6c63ff"/>
  <path id="Path_370" data-name="Path 370" d="M651.88,296.3V278.263a1.885,1.885,0,0,1,1.883-1.883h15.288a1.885,1.885,0,0,1,1.883,1.883V296.3a1.885,1.885,0,0,1-1.883,1.883H653.762A1.885,1.885,0,0,1,651.88,296.3Z" transform="translate(-401.447 -247.585)" fill="#ccc"/>
  <path id="Path_371" data-name="Path 371" d="M699.515,347.282V329.241a1.885,1.885,0,0,1,1.883-1.883h15.288a1.885,1.885,0,0,1,1.883,1.883v18.041a1.885,1.885,0,0,1-1.883,1.883H701.4A1.885,1.885,0,0,1,699.515,347.282Z" transform="translate(-425.234 -273.041)" fill="#ff6584"/>
  <circle id="Ellipse_86" data-name="Ellipse 86" cx="3.238" cy="3.238" r="3.238" transform="translate(387.639 2.68)" fill="#f2f2f2"/>
  <circle id="Ellipse_87" data-name="Ellipse 87" cx="3.238" cy="3.238" r="3.238" transform="translate(387.639 15.584)" fill="#f2f2f2"/>
  <circle id="Ellipse_88" data-name="Ellipse 88" cx="3.238" cy="3.238" r="3.238" transform="translate(387.639 28.487)" fill="#f2f2f2"/>
  <circle id="Ellipse_89" data-name="Ellipse 89" cx="3.238" cy="3.238" r="3.238" transform="translate(387.639 41.39)" fill="#f2f2f2"/>
  <circle id="Ellipse_90" data-name="Ellipse 90" cx="3.238" cy="3.238" r="3.238" transform="translate(374.121 2.68)" fill="#f2f2f2"/>
  <circle id="Ellipse_91" data-name="Ellipse 91" cx="3.238" cy="3.238" r="3.238" transform="translate(374.121 15.584)" fill="#f2f2f2"/>
  <circle id="Ellipse_92" data-name="Ellipse 92" cx="3.238" cy="3.238" r="3.238" transform="translate(374.121 28.487)" fill="#f2f2f2"/>
  <circle id="Ellipse_93" data-name="Ellipse 93" cx="3.238" cy="3.238" r="3.238" transform="translate(374.121 41.39)" fill="#f2f2f2"/>
  <circle id="Ellipse_94" data-name="Ellipse 94" cx="3.238" cy="3.238" r="3.238" transform="translate(360.604 2.68)" fill="#f2f2f2"/>
  <circle id="Ellipse_95" data-name="Ellipse 95" cx="3.238" cy="3.238" r="3.238" transform="translate(360.604 15.584)" fill="#f2f2f2"/>
  <circle id="Ellipse_96" data-name="Ellipse 96" cx="3.238" cy="3.238" r="3.238" transform="translate(360.604 28.487)" fill="#f2f2f2"/>
  <circle id="Ellipse_97" data-name="Ellipse 97" cx="3.238" cy="3.238" r="3.238" transform="translate(360.604 41.39)" fill="#f2f2f2"/>
  <circle id="Ellipse_98" data-name="Ellipse 98" cx="3.238" cy="3.238" r="3.238" transform="translate(347.086 2.68)" fill="#f2f2f2"/>
  <circle id="Ellipse_99" data-name="Ellipse 99" cx="3.238" cy="3.238" r="3.238" transform="translate(347.086 15.584)" fill="#f2f2f2"/>
  <circle id="Ellipse_100" data-name="Ellipse 100" cx="3.238" cy="3.238" r="3.238" transform="translate(347.086 28.487)" fill="#f2f2f2"/>
  <circle id="Ellipse_101" data-name="Ellipse 101" cx="3.238" cy="3.238" r="3.238" transform="translate(347.086 41.39)" fill="#f2f2f2"/>
  <circle id="Ellipse_102" data-name="Ellipse 102" cx="3.238" cy="3.238" r="3.238" transform="translate(333.569 2.68)" fill="#f2f2f2"/>
  <circle id="Ellipse_103" data-name="Ellipse 103" cx="3.238" cy="3.238" r="3.238" transform="translate(333.569 15.584)" fill="#f2f2f2"/>
  <circle id="Ellipse_104" data-name="Ellipse 104" cx="3.238" cy="3.238" r="3.238" transform="translate(333.569 28.487)" fill="#f2f2f2"/>
  <circle id="Ellipse_105" data-name="Ellipse 105" cx="3.238" cy="3.238" r="3.238" transform="translate(333.569 41.39)" fill="#f2f2f2"/>
  <circle id="Ellipse_106" data-name="Ellipse 106" cx="3.238" cy="3.238" r="3.238" transform="translate(320.051 2.68)" fill="#f2f2f2"/>
  <circle id="Ellipse_107" data-name="Ellipse 107" cx="3.238" cy="3.238" r="3.238" transform="translate(320.051 15.584)" fill="#f2f2f2"/>
  <circle id="Ellipse_108" data-name="Ellipse 108" cx="3.238" cy="3.238" r="3.238" transform="translate(320.051 28.487)" fill="#f2f2f2"/>
  <circle id="Ellipse_109" data-name="Ellipse 109" cx="3.238" cy="3.238" r="3.238" transform="translate(320.051 41.39)" fill="#f2f2f2"/>
  <path id="Path_372" data-name="Path 372" d="M823.125,420.355a5.508,5.508,0,0,1,3.889-7.241,5.3,5.3,0,0,1,.727-.118l12.167-21.327-3.072-5.278,7.648-5.9,5.851,8.127a5.581,5.581,0,0,1-.13,6.663l-16.7,21.385a5.258,5.258,0,0,1,.155.518,5.509,5.509,0,0,1-4.686,6.754,5.36,5.36,0,0,1-.674.042A5.525,5.525,0,0,1,823.125,420.355Z" transform="translate(-486.793 -299.573)" fill="#ffb8b8"/>
  <path id="Path_373" data-name="Path 373" d="M615.346,427.274h-6.138l-2.92-23.675h9.059Z" transform="translate(-302.751 -201.538)" fill="#ffb8b8"/>
  <path id="Path_374" data-name="Path 374" d="M595.929,447.384h11.837v7.453h-19.29A7.453,7.453,0,0,1,595.929,447.384Z" transform="translate(-293.857 -223.402)" fill="#2f2e41"/>
  <path id="Path_375" data-name="Path 375" d="M716.346,427.274h-6.138l-2.92-23.675h9.059Z" transform="translate(-353.186 -201.538)" fill="#ffb8b8"/>
  <path id="Path_376" data-name="Path 376" d="M696.929,447.384h11.837v7.453h-19.29A7.453,7.453,0,0,1,696.929,447.384Z" transform="translate(-344.292 -223.402)" fill="#2f2e41"/>
  <path id="Path_377" data-name="Path 377" d="M852.087,371.229l-13.78,5.236-3.364-9.345a5.591,5.591,0,0,1,2.5-6.759h0a5.591,5.591,0,0,1,7.14,1.394Z" transform="translate(-492.694 -289.158)" fill="#6c63ff"/>
  <path id="Path_378" data-name="Path 378" d="M763.641,537.635,752.083,535a2.5,2.5,0,0,1-1.909-2.813c4.637-29.393,9.1-46.606,20.6-68.465.161-.408,1.956-8.68,3.128-14.161a2.489,2.489,0,0,1,2.11-2.515l21.55-3.317a2.789,2.789,0,0,1,1.012-.152l.215.041,0,.212c0,.219-.221.253-.3.265l-.286.044a3.348,3.348,0,0,1,.889.6c9.442,11.357,14.352,48.583,20.588,89.708a2.245,2.245,0,0,1-.653,1.826,2.47,2.47,0,0,1-1.771.8l-13.769.336a2.494,2.494,0,0,1-2.521-2.112l-9.274-53.594a1.99,1.99,0,0,0-3.752-.579c-7.482,15.237-14.459,28.414-21.331,54.7a2.48,2.48,0,0,1-2.4,1.865A2.525,2.525,0,0,1,763.641,537.635Z" transform="translate(-450.516 -331.074)" fill="#2f2e41"/>
  <path id="Path_379" data-name="Path 379" d="M797.691,408.023a2.5,2.5,0,0,1-1.043-1.777c-1.765-16.476-.536-29.37,3.758-39.418a12.512,12.512,0,0,1,8.294-7.1l11.139-.562.058.028a13.019,13.019,0,0,1,7.119,13.812c-3.583,9.444-6.583,19.276-4.295,27.208a2.565,2.565,0,0,1-.242,1.994,2.445,2.445,0,0,1-1.56,1.156L799.7,408.412A2.485,2.485,0,0,1,797.691,408.023Z" transform="translate(-473.349 -288.925)" fill="#6c63ff"/>
  <path id="Path_380" data-name="Path 380" d="M761.353,382.027l-21.365-16.855a5.258,5.258,0,0,1-.519.153,5.521,5.521,0,0,1-4.415-.847,5.463,5.463,0,0,1-2.316-3.872,5.508,5.508,0,0,1,10.832-1.9,5.291,5.291,0,0,1,.115.727l21.268,12.27,5.293-3.047,5.863,7.676-8.218,5.857A5.478,5.478,0,0,1,761.353,382.027Z" transform="translate(-441.806 -286.572)" fill="#ffb8b8"/>
  <path id="Path_381" data-name="Path 381" d="M812.453,384.2l-12.19-8.289,5.729-8.114a5.591,5.591,0,0,1,6.973-1.822h0a5.591,5.591,0,0,1,2.951,6.65Z" transform="translate(-475.542 -292.051)" fill="#6c63ff"/>
  <circle id="Ellipse_110" data-name="Ellipse 110" cx="12.296" cy="12.296" r="12.296" transform="translate(330.477 41.489)" fill="#ffb8b8"/>
  <path id="Path_382" data-name="Path 382" d="M814.519,307.5c-3.161,2.163-7.31,4.387-10.538,2.083a5.874,5.874,0,0,1-1.928-6.771c1.546-4.42,5.792-6.366,9.853-7.857,5.279-1.939,11.027-3.482,16.477-2.093s10.266,6.665,9.282,12.2c-.791,4.453-4.991,8.158-4.4,12.641.6,4.512,5.674,6.887,10.154,7.693s9.492,1.066,12.712,4.283c4.107,4.1,3.081,11.441-.783,15.775s-9.7,6.3-15.347,7.634c-7.487,1.769-15.585,2.7-22.7-.237s-12.644-10.841-10.584-18.253c.87-3.131,2.92-5.777,4.9-8.353s3.987-5.27,4.742-8.43a8.764,8.764,0,0,0-1.583-7.667,2.221,2.221,0,0,1-.3-2.6Z" transform="translate(-476.255 -255.551)" fill="#2f2e41"/>
</svg>
