<svg id="Component_6_1" data-name="Component 6 – 1" xmlns="http://www.w3.org/2000/svg" width="317.471" height="245.435" viewBox="0 0 317.471 245.435">
  <path id="Path_316" data-name="Path 316" d="M409.908,117.539l-4.729,21.268-3.839,17.254-3.059,13.761-3.836,17.254-12.535,56.368L226.58,171.668l-11.418-5.277-14.452-6.679-11.422-5.277-13.737-6.349,7.788-11.331,6.476-9.422,8.193-11.92L204.483,106,277.34,0l77.18,68.431,13.744,12.185,10.959,9.717,13.746,12.185Z" transform="translate(-123.274)" fill="#f2f2f2"/>
  <path id="Path_317" data-name="Path 317" d="M223.565,303.114c-10.387-5.79-16.853-13.7-19.219-23.5-1.757-7.277-1.252-15.465,1.5-24.337a65.181,65.181,0,0,1,9.064-18.309c21.035-29.775,22.934-49.176,20.822-60.208-2.315-12.1-9.836-17.121-9.912-17.17l.325-.5c.078.05,7.8,5.191,10.168,17.534,1.367,7.115.724,15.229-1.911,24.115-3.279,11.059-9.673,23.364-19.005,36.573a64.591,64.591,0,0,0-8.982,18.142c-4.514,14.552-5.153,34.542,17.44,47.137Z" transform="translate(-162.711 -123.004)" fill="#2f2e41"/>
  <path id="Path_318" data-name="Path 318" d="M256.367,303.114c10.387-5.79,16.853-13.7,19.219-23.5,1.757-7.277,1.252-15.465-1.5-24.337a65.181,65.181,0,0,0-9.064-18.309C243.986,207.2,242.087,187.8,244.2,176.764c2.315-12.1,9.836-17.121,9.912-17.17l-.325-.5c-.078.05-7.8,5.191-10.168,17.534-1.367,7.115-.724,15.229,1.911,24.115,3.279,11.059,9.673,23.364,19.005,36.573a64.59,64.59,0,0,1,8.982,18.142c4.514,14.552,5.152,34.542-17.44,47.137Z" transform="translate(-190.518 -123.004)" fill="#2f2e41"/>
  <path id="Path_319" data-name="Path 319" d="M1000.565,219.114c-10.387-5.79-16.853-13.7-19.219-23.5-1.757-7.277-1.252-15.465,1.5-24.337a65.183,65.183,0,0,1,9.064-18.309c21.035-29.774,22.934-49.176,20.822-60.208-2.315-12.1-9.836-17.121-9.912-17.17l.325-.5c.078.05,7.8,5.191,10.168,17.534,1.367,7.115.724,15.229-1.911,24.115-3.279,11.059-9.673,23.364-19.005,36.573a64.593,64.593,0,0,0-8.982,18.142c-4.514,14.552-5.152,34.542,17.44,47.137Z" transform="translate(-708.332 -64.018)" fill="#2f2e41"/>
  <path id="Path_320" data-name="Path 320" d="M1033.367,219.114c10.387-5.79,16.853-13.7,19.219-23.5,1.757-7.277,1.252-15.465-1.5-24.337a65.178,65.178,0,0,0-9.064-18.309c-21.035-29.775-22.934-49.176-20.822-60.208,2.315-12.1,9.836-17.121,9.912-17.17l-.325-.5c-.078.05-7.8,5.191-10.168,17.534-1.367,7.115-.724,15.229,1.911,24.115,3.279,11.059,9.674,23.364,19.005,36.573a64.589,64.589,0,0,1,8.982,18.142c4.514,14.552,5.153,34.542-17.44,47.137Z" transform="translate(-736.138 -64.018)" fill="#2f2e41"/>
  <path id="Path_321" data-name="Path 321" d="M392.758,305.183c-7.8-13.186-23.244-13.8-23.244-13.8s-15.045-1.924-24.7,18.159c-9,18.719-21.411,36.793-2,41.175l3.506-10.914,2.172,11.726a75.96,75.96,0,0,0,8.306.142c20.789-.671,40.587.2,39.95-7.264C395.905,334.49,400.267,317.871,392.758,305.183Z" transform="translate(-253.449 -215.864)" fill="#2f2e41"/>
  <path id="Path_322" data-name="Path 322" d="M427.194,419.386a74.088,74.088,0,0,1,5.4,20.915l21.589-1.349c-4.963-7.033-6.611-15.106-4.723-24.288Z" transform="translate(-319.918 -302.469)" fill="#ffb8b8"/>
  <path id="Path_323" data-name="Path 323" d="M427.194,419.386a74.088,74.088,0,0,1,5.4,20.915l21.589-1.349c-4.963-7.033-6.611-15.106-4.723-24.288Z" transform="translate(-319.918 -302.469)" opacity="0.2"/>
  <path id="Path_324" data-name="Path 324" d="M74.056,810.844s-11.174,5.985-5.5,11.1,13.16-6.764,13.16-6.764Z" transform="translate(-66.947 -580.672)" fill="#ffb8b8"/>
  <path id="Path_325" data-name="Path 325" d="M312.548,680.923l-.175,8.177L312,706.768v0l-.108,5.117H240.438l2.9-16.125,0-.012,2.6-14.433,1.16-6.463v0l58.7-8.1Z" transform="translate(-168.839 -468.205)" fill="#2f2e41"/>
  <path id="Path_326" data-name="Path 326" d="M392.48,718.828,392.3,727c-20.766-.533-52.954-5.546-66.427-7.786l1.16-6.463,58.7-8.1Z" transform="translate(-248.771 -506.108)" fill="#3f3d56"/>
  <circle id="Ellipse_57" data-name="Ellipse 57" cx="16.867" cy="16.867" r="16.867" transform="translate(100.867 88.919)" fill="#ffb8b8"/>
  <path id="Path_327" data-name="Path 327" d="M375.375,549.395s2.024,18.216-10.12,16.867l-2.024-18.216-10.795-10.795-30.36-.675L299.812,557.49s-.675-21.589,2.024-23.613,8.771-6.747,8.771-6.747v-3.373l-18.216-37.106s10.795-22.264,19.565-22.939l11.469-.675s4.048-2.024,4.048-2.7-.675-6.072,2.7-4.723c0,0,.3-6.922,3.859-4.81,0,0,11.193,8.771,22.554.385,0,0,5.3-.972,4.621,1.727s0,4.723,1.349,4.723,7.421,2.024,7.421,3.373c0,.29.439,3.083,1.127,7.286v.007c2.5,15.322,8.319,49.378,8.319,49.378S385.495,526.456,375.375,549.395Z" transform="translate(-225.257 -327.567)" fill="#6c63ff"/>
  <path id="Path_328" data-name="Path 328" d="M141.2,560.794l-4.723,3.373L93.3,619.49,70.363,637.706s12.819-2.024,10.12,8.771l78.936-45.2Z" transform="translate(-69.346 -405.084)" fill="#6c63ff"/>
  <path id="Path_329" data-name="Path 329" d="M443.094,466.882v.007c-.9,5.276-30.137,4.176-34.185,4.176a18.847,18.847,0,0,1-11.469-3.373c-4.048-2.7-2.024-6.072-2.024-6.072s3.447-2.625,3.447-3.3-.675-6.072,2.7-4.723c0,0,.3-6.922,3.859-4.81,0,0,11.794,9.372,23.155.986,0,0,5.3-.971,4.621,1.727s0,4.723,1.349,4.723,7.421,2.024,7.421,3.373C441.967,459.886,442.406,462.679,443.094,466.882Z" transform="translate(-297.247 -326.149)" fill="#3f3d56"/>
  <path id="Path_330" data-name="Path 330" d="M516.145,408.267s-5.4-11.469-10.795-6.072,6.072,13.493,6.072,13.493Z" transform="translate(-373.786 -292.699)" fill="#ffb8b8"/>
  <path id="Path_331" data-name="Path 331" d="M519.269,416.929s-8.334,10.533-10.914,11.338c0,0,7.541,29.816,16.986,37.912l5.4,27.661s22.939-9.445,17.541-24.963l-.161-.463a153.056,153.056,0,0,0-18.492-36.452Z" transform="translate(-376.91 -304.059)" fill="#6c63ff"/>
  <path id="Path_332" data-name="Path 332" d="M463.1,483.933l16.6,45.673-6.072-27.661Z" transform="translate(-325.197 -339.825)" opacity="0.2"/>
  <path id="Path_333" data-name="Path 333" d="M360.309,276.835l-15.254-7.99-21.064,3.269-4.358,19.249,10.849-.417,3.031-7.072v6.955l5.006-.193,2.905-11.259,1.816,11.985,17.8-.363Z" transform="translate(-224.45 -188.787)" fill="#2f2e41"/>
  <path id="Path_334" data-name="Path 334" d="M1007.076,674.307l8.654,30.872s-1.783,27.345,6.539,21.995c8.517-5.475,5.35-28.534,5.35-28.534l-4.988-27.7Z" transform="translate(-727.119 -482.432)" fill="#a0616a"/>
  <path id="Path_335" data-name="Path 335" d="M1002.778,391.415l7.147,7.147v34.053s4.2,6.306,3.363,7.988-1.682,1.682-.841,2.943,1.682,2.1.841,2.943a3.153,3.153,0,0,0,0,3.784c.841.841,2.522,2.1,1.261,3.363s-2.943.42-1.261,5.045,4.624,5.886,3.784,7.567-.841,5.886-.841,5.886l-18.077,2.522-3.784-47.505Z" transform="translate(-718.197 -286.143)" fill="#d0cde1"/>
  <path id="Path_336" data-name="Path 336" d="M954.09,623.161,933.07,624l.841,8.828,18.5-3.363Z" transform="translate(-655.215 -437.593)" fill="#3f3d56"/>
  <path id="Path_337" data-name="Path 337" d="M803.593,205.986,801.07,231.21l25.645,3.784,1.892-14.5,1.892-14.5Z" transform="translate(-562.523 -144.646)" fill="#a0616a"/>
  <path id="Path_338" data-name="Path 338" d="M803.593,205.527l-2.523,25.224,25.645,3.784,1.892-14.5,1.892-14.5Z" transform="translate(-562.523 -144.324)" opacity="0.1"/>
  <path id="Path_339" data-name="Path 339" d="M689.43,646.944l14.294,30.689s2.522,14.294,6.306,14.714,7.567-14.714,7.567-14.714l-5.045-7.988-5.886-22.7Z" transform="translate(-504.063 -465.579)" fill="#a0616a"/>
  <path id="Path_340" data-name="Path 340" d="M827.444,750.206h-80.81c.64-10.128,1.043-16.372,1.043-16.372l1.073-1.689,5.2-8.177,3.716-5.838,1.3-2.038.481-.755,5.09-.929,52.506-9.581a64.149,64.149,0,0,0,3.67,11.348c.358.815.743,1.629,1.154,2.435a25.057,25.057,0,0,0,4.846,6.815c.436.409.752,1.5.956,3.178C828.175,732.713,828.03,740.355,827.444,750.206Z" transform="translate(-544.233 -506.226)" fill="#2f2e41"/>
  <circle id="Ellipse_58" data-name="Ellipse 58" cx="20.179" cy="20.179" r="20.179" transform="translate(234.974 29.179)" fill="#a0616a"/>
  <path id="Path_341" data-name="Path 341" d="M697.188,338.038l-2.943-1.682s-13.033,8.828-17.237,28.587-7.147,24.8-7.147,24.8-4.2.841-1.261,3.784,2.943,2.522.42,4.2-4.2-1.682-2.522,1.682,3.784,2.522,2.1,4.624-4.624,2.1-2.943,3.784-1.682,5.465.42,7.147,2.943,2.1,2.943,5.045a14.887,14.887,0,0,0,.841,5.045h21.861s-4.2-7.988-2.943-9.669,1.682-3.363.841-4.2-3.363.841-.841-1.261,3.363-.841,2.522-3.363-2.522-1.261-.841-2.522,2.943-.841,2.1-2.1-2.522-1.261-.841-2.1,2.943,0,2.522-2.1-.841-1.261,0-2.1,9.669-29.428,9.669-30.269S697.188,338.038,697.188,338.038Z" transform="translate(-487.017 -247.48)" fill="#d0cde1"/>
  <path id="Path_342" data-name="Path 342" d="M629.2,590.691l-26.485,1.682,6.726,6.306,18.5.42Z" transform="translate(-423.237 -414.792)" fill="#3f3d56"/>
  <path id="Path_343" data-name="Path 343" d="M771.13,734.473l-5.465,10.09s16.4,2.1,22.281,4.2,21.02,5.045,21.02,5.045L812.75,739.1Z" transform="translate(-557.597 -527.043)" fill="#3f3d56"/>
  <path id="Path_344" data-name="Path 344" d="M878.011,705.163l4.625,13.873,18.5-3.784-2.1-13.032Z" transform="translate(-616.552 -493.109)" fill="#3f3d56"/>
  <path id="Path_345" data-name="Path 345" d="M824.64,269.957s-1.261-.841-4.2.841-12.612,2.522-17.236-2.522-7.988-9.249-9.249-8.408-2.1,10.51-2.1,10.51l-4.2,3.363-24.8,8.828,2.1,56.754,3.784,13.033s-2.943,10.09.841,15.975-2.1,7.988-2.1,7.988-1.261,1.682-.42,5.886-.841,19.759-.841,19.759,35.734,15.975,73.15,2.1l-4.2-15.975-2.1-35.734s2.1-5.886,1.682-8.408,12.612-37.836,12.612-37.836-2.1-17.657-13.032-21.441S821.7,277.1,821.7,277.1,826.742,271.639,824.64,269.957Z" transform="translate(-555.614 -193.693)" fill="#d0cde1"/>
  <path id="Path_346" data-name="Path 346" d="M852.072,141.3a9.253,9.253,0,0,1-1.289-6.528,19.786,19.786,0,0,0,.564-5.884,58.241,58.241,0,0,1,3.385-8.543c1.693-3.063.886-4.352,6.206-5.319s3.143-7.9,17.167-.4a4.113,4.113,0,0,0,4.272,1.612c2.9-.564,3.949,3.466,3.949,3.466s1.934-1.128,2.66.484,5.9-.967,5.9,9.913S889,150.7,889,150.7s.431-18.3-9.16-20.156-19.907-7.254-22.406-.322A52.837,52.837,0,0,1,852.072,141.3Z" transform="translate(-617.238 -89.359)" fill="#2f2e41"/>
  <ellipse id="Ellipse_59" data-name="Ellipse 59" cx="1.892" cy="2.522" rx="1.892" ry="2.522" transform="translate(270.078 51.25)" fill="#a0616a"/>
</svg>
