<svg xmlns="http://www.w3.org/2000/svg" xmlns:xlink="http://www.w3.org/1999/xlink" width="351.998" height="258.435" viewBox="0 0 351.998 258.435">
  <defs>
    <linearGradient id="linear-gradient" x1="0.5" y1="1" x2="0.5" gradientUnits="objectBoundingBox">
      <stop offset="0" stop-color="gray" stop-opacity="0.251"/>
      <stop offset="0.54" stop-color="gray" stop-opacity="0.122"/>
      <stop offset="1" stop-color="gray" stop-opacity="0.102"/>
    </linearGradient>
  </defs>
  <g id="Group_9" data-name="Group 9" transform="translate(0.007 0.053)">
    <path id="Path_221" data-name="Path 221" d="M137.389,267.651c7.407,16.73-2.044,36-13.151,50.528-3.725,4.862-7.819,9.952-8.342,16.073-.622,7.464,4.432,14.327,10.432,18.813a43.926,43.926,0,0,0,38.895,6.579c11.249-3.554,20.707-11.612,32.053-14.861,18.987-5.435,39.1,3.576,55.344,14.8,11.5,7.94,23.814,17.594,37.676,15.9,9.76-1.194,18.042-8.043,23.658-16.112,2.712-3.91,5.072-8.257,9.024-10.887a22.536,22.536,0,0,1,7.869-2.982c25.2-5.385,51.939,7.759,76.805,1,16.794-4.567,30.187-17.843,38.511-33.123s12.213-32.54,15.451-49.639c2.3-12.152,4.208-25.264-1.066-36.446-5.594-11.829-18.543-19-31.555-20.338s-26.067,2.374-38.056,7.613c-14.981,6.551-29.664,15.721-46.018,15.753-11.136.021-21.752-4.265-32.4-7.51-17.835-5.449-36.318-8.157-54.775-10.656-17.661-2.392-35.493-4.621-53.261-3.2-12.572,1-23.672,5.8-35.87,8.026-7.951,1.45-15.941.355-23.743,2.811-9.6,3-19.492,9.973-20.021,20.938C124.344,251.152,133.458,258.769,137.389,267.651Z" transform="translate(-111.937 -163.989)" fill="#6c63ff" opacity="0.1"/>
    <g id="Group_7" data-name="Group 7" transform="translate(229.176 61.167)" opacity="0.5">
      <path id="Path_222" data-name="Path 222" d="M768.507,262.569c-1.777.512-3.984,1.834-5.065,5.463-2.133,7.109,2.8,11.971,1.184,19.353a14.436,14.436,0,0,1-2.488,5.427c-1.98,2.684-4.134,3.956-6.216,5.836a18.546,18.546,0,0,0-5.463,8.971,24.829,24.829,0,0,0-.245,11.662,46.266,46.266,0,0,0,3.11,8.175,60.386,60.386,0,0,1,3.2,10.307,25.068,25.068,0,0,1,.711,5.228,46.142,46.142,0,0,1-.647,6.995L753.575,371a62.374,62.374,0,0,0-.821,8.3,41.1,41.1,0,0,0,.963,8.292c1.066,5.559,2.193,11.328,4.621,14.26s6.544,1.916,9.078-4.07c2.41-5.687,2.46-13.293,4.585-19.378,3.348-9.6,10.009-10.876,13.7-20.021,3.554-8.772,2.46-19.549,4.265-29.543,1.287-7.169,4.027-13.709,5.651-20.793a65.912,65.912,0,0,0,.238-28.637,38.034,38.034,0,0,0-8.911-17.309c-1.567-1.731-3.241-3.27-5.211-3.423-2.093-.16-3.91,2.488-5.989,3.266C773.337,262.843,770.935,261.88,768.507,262.569Z" transform="translate(-749.636 -258.67)" fill="#6c63ff"/>
      <path id="Path_223" data-name="Path 223" d="M801.147,260.09s-3.554,90.734-18.457,144.241" transform="translate(-770.942 -259.585)" fill="none" stroke="#535461" stroke-miterlimit="10" stroke-width="2"/>
      <path id="Path_224" data-name="Path 224" d="M788.22,286.26s15.916,14.505,12.913,42.143" transform="translate(-774.506 -276.454)" fill="none" stroke="#535461" stroke-miterlimit="10" stroke-width="2"/>
      <path id="Path_225" data-name="Path 225" d="M750.6,402.38s26.16,5.26,24.219,20.906" transform="translate(-750.257 -351.301)" fill="none" stroke="#535461" stroke-miterlimit="10" stroke-width="2"/>
      <path id="Path_226" data-name="Path 226" d="M843.474,316.41s-10.581,9.266-20.014,35.511" transform="translate(-797.221 -295.888)" fill="none" stroke="#535461" stroke-miterlimit="10" stroke-width="2"/>
      <path id="Path_227" data-name="Path 227" d="M827.049,513.92s-7.222,5.687-13.019-14.15" transform="translate(-791.142 -414.076)" fill="none" stroke="#535461" stroke-miterlimit="10" stroke-width="2"/>
      <path id="Path_228" data-name="Path 228" d="M763,551.91s14.729-1.923,16.087-11.15" transform="translate(-758.25 -440.497)" fill="none" stroke="#535461" stroke-miterlimit="10" stroke-width="2"/>
    </g>
    <path id="Path_229" data-name="Path 229" d="M842.947,90.69c-3.647.54-8.033,2.229-9.835,7.443-3.537,10.222,7.219,17.96,4.741,28.641a16.055,16.055,0,0,1-4.5,7.7c-3.782,3.718-8.086,5.331-12.173,7.855a22.938,22.938,0,0,0-10.247,12.564,26.486,26.486,0,0,0,.871,17.146c1.916,4.83,4.816,8.431,7.407,12.4a84.033,84.033,0,0,1,7.873,15.536,29.872,29.872,0,0,1,2.079,7.78,47.063,47.063,0,0,1-.508,10.222l-3.739,30.567a63.616,63.616,0,0,0-.711,12.131A47.8,47.8,0,0,0,827.18,273c2.843,8.31,5.886,16.943,11.242,21.546s13.773,3.6,18.3-4.919c4.311-8.107,3.519-19.286,7.194-27.994,5.793-13.723,19.424-14.832,25.982-27.859,6.295-12.5,2.772-28.484,5.3-43.007,1.813-10.407,6.714-19.709,9.241-29.949a70.589,70.589,0,0,0-2.9-42.143c-4.8-11.768-12.362-20.1-20.494-26.547-3.448-2.733-7.109-5.2-11.189-5.658-4.35-.483-7.819,3.178-12.01,4.1C852.974,91.66,847.891,89.957,842.947,90.69Z" transform="translate(-559.296 -86.48)" fill="#6c63ff"/>
    <path id="Path_230" data-name="Path 230" d="M929.5,88.12s3.43,133.2-21.1,210.227" transform="translate(-622.794 -87.571)" fill="none" stroke="#535461" stroke-miterlimit="10" stroke-width="2"/>
    <path id="Path_231" data-name="Path 231" d="M874.83,121.16s34.7,23.252,31.726,63.594" transform="translate(-601.156 -108.868)" fill="none" stroke="#535461" stroke-miterlimit="10" stroke-width="2"/>
    <path id="Path_232" data-name="Path 232" d="M810.75,287.71s54.765,10.848,52.6,33.656" transform="translate(-559.852 -216.221)" fill="none" stroke="#535461" stroke-miterlimit="10" stroke-width="2"/>
    <path id="Path_233" data-name="Path 233" d="M1000.4,176.42s-20.814,12.39-37.21,49.92" transform="translate(-658.11 -144.487)" fill="none" stroke="#535461" stroke-miterlimit="10" stroke-width="2"/>
    <path id="Path_234" data-name="Path 234" d="M982.193,461s-14.274,7.514-28.623-22.392" transform="translate(-651.91 -313.486)" fill="none" stroke="#535461" stroke-miterlimit="10" stroke-width="2"/>
    <path id="Path_235" data-name="Path 235" d="M856.47,512.849s30.258-1.088,31.989-14.509" transform="translate(-589.322 -351.987)" fill="none" stroke="#535461" stroke-miterlimit="10" stroke-width="2"/>
    <ellipse id="Ellipse_48" data-name="Ellipse 48" cx="152.007" cy="14.601" rx="152.007" ry="14.601" transform="translate(21.513 193.189)" fill="#6c63ff" opacity="0.1"/>
    <path id="Path_236" data-name="Path 236" d="M157.246,622.29s2.979,3.91-1.376,9.774-7.944,10.848-6.476,14.512c0,0,6.568-10.922,11.914-11.075S163.128,628.858,157.246,622.29Z" transform="translate(-133.347 -431.881)" fill="#6c63ff"/>
    <path id="Path_237" data-name="Path 237" d="M157.536,622.29a4.821,4.821,0,0,1,.608,1.223c5.218,6.128,7.994,11.846,2.982,11.992-4.67.135-10.272,8.484-11.615,10.6a4.529,4.529,0,0,0,.16.48s6.568-10.922,11.914-11.075S163.418,628.858,157.536,622.29Z" transform="translate(-133.637 -431.881)" opacity="0.1"/>
    <path id="Path_238" data-name="Path 238" d="M186.381,634.68c0,1.372-.153,2.488-.355,2.488s-.355-1.112-.355-2.488.192-.711.38-.711S186.381,633.308,186.381,634.68Z" transform="translate(-156.945 -439.305)" fill="#ffd037"/>
    <path id="Path_239" data-name="Path 239" d="M188.741,639.158c-1.2.658-2.253,1.066-2.342.885s.81-.835,2.015-1.489.729-.178.821,0S189.95,638.5,188.741,639.158Z" transform="translate(-157.411 -442.148)" fill="#ffd037"/>
    <path id="Path_240" data-name="Path 240" d="M115.722,622.29s-2.979,3.91,1.376,9.774,7.93,10.848,6.508,14.512c0,0-6.568-10.922-11.914-11.075S109.843,628.858,115.722,622.29Z" transform="translate(-107.559 -431.881)" fill="#6c63ff"/>
    <path id="Path_241" data-name="Path 241" d="M115.7,622.29a4.823,4.823,0,0,0-.608,1.223c-5.218,6.128-7.994,11.847-2.982,11.992,4.67.135,10.272,8.484,11.615,10.6a4.523,4.523,0,0,1-.16.48S117,635.658,111.65,635.5,109.82,628.858,115.7,622.29Z" transform="translate(-107.535 -431.881)" opacity="0.1"/>
    <path id="Path_242" data-name="Path 242" d="M112.25,634.68c0,1.372.153,2.488.355,2.488s.355-1.112.355-2.488-.192-.711-.38-.711S112.25,633.308,112.25,634.68Z" transform="translate(-109.621 -439.305)" fill="#ffd037"/>
    <path id="Path_243" data-name="Path 243" d="M105.568,639.158c1.2.658,2.253,1.066,2.342.885s-.81-.835-2.015-1.489-.729-.178-.821,0S104.363,638.5,105.568,639.158Z" transform="translate(-104.84 -442.148)" fill="#ffd037"/>
    <path id="Path_244" data-name="Path 244" d="M114.91,681.033s8.328-.256,10.837-2.044,12.8-3.91,13.432-1.066,12.515,14.256,3.114,14.331-21.845-1.464-24.351-2.989S114.91,681.033,114.91,681.033Z" transform="translate(-111.335 -466.845)" fill="#a8a8a8"/>
    <path id="Path_245" data-name="Path 245" d="M142.469,699.423c-9.4.075-21.845-1.464-24.351-2.989-1.909-1.162-2.669-5.332-2.922-7.254h-.277s.526,6.718,3.032,8.242,14.949,3.067,24.365,2.993c2.715-.021,3.65-.988,3.6-2.417C145.515,698.862,144.488,699.4,142.469,699.423Z" transform="translate(-111.342 -474.996)" opacity="0.2"/>
    <path id="Path_246" data-name="Path 246" d="M419.87,486.267s41.674-26.625,70.486-26.625c0,0,34.687-5.4,72.415,3.729s51.665,20.97,62.126,17.494l-43.945,1.287Z" transform="translate(-307.903 -326.02)" fill="#8cd0f3"/>
    <path id="Path_247" data-name="Path 247" d="M419.87,486.267s41.674-26.625,70.486-26.625c0,0,34.687-5.4,72.415,3.729s51.665,20.97,62.126,17.494l-43.945,1.287Z" transform="translate(-307.903 -326.02)" fill="#8cd0f3" opacity="0.1"/>
    <path id="Path_248" data-name="Path 248" d="M406.762,493.988H152.6l6.988-28,43.22-11.491,203.953,5.36Z" transform="translate(-98.366 -292.991)" fill="#121c3f"/>
    <path id="Path_249" data-name="Path 249" d="M494.5,512.355v8.936s-7.546,5.474-8.232,9.76c0,0-10.805,2.744-13.89,2.744a8.977,8.977,0,0,0-.906.032,25.659,25.659,0,0,0,1.127-3.977,26.193,26.193,0,1,0-49.714,5.331H408.238s-.135.046-.355.142c-.786.355-2.637,1.294-2.9,2.769H283.56l-2.488-.021a25.687,25.687,0,0,0,1.422-2.751,25.38,25.38,0,0,0,1.727-5.463,26.218,26.218,0,1,0-48.307,8.129c-1.734-.423-5.52-1.624-5.52-1.624s-16.119-1.713-20.235-5.331l.622-.43,2.637-1.8-1.2-4.621a2.844,2.844,0,0,1-.355-.633,4.228,4.228,0,0,1,.53-4c1.713-2.744.857-12.518.857-12.518S236.572,490.9,282.533,487.3a6.635,6.635,0,0,0,3.366,1.031,14.7,14.7,0,0,0,6.241-1.031s3.771,1.713,19.9-7.546c0,0,27.443-18.866,63.459-17.146,0,0,37.043-2.232,68.6,9.952a194.232,194.232,0,0,0,31.321,9.522,72.659,72.659,0,0,0,13.044,1.642h1.255s0,4.084.217,8.907v.025c.078,1.678.185,3.444.334,5.161v.107c.412,4.781,1.123,9.124,2.357,9.984Z" transform="translate(-172.73 -328.852)" fill="#2856b8"/>
    <path id="Path_250" data-name="Path 250" d="M228.62,574.819s10.332-8.061,23.2-6.344c0,0-11.7,9.263-16.979,8.662l-.9-.771-5.331.3S227.81,575.42,228.62,574.819Z" transform="translate(-184.395 -397.039)" fill="#8cd0f3"/>
    <path id="Path_251" data-name="Path 251" d="M228.14,626v4.759s-.355,4.546-4.461,4.717l-11.729.579,2.634-1.8-1.2-4.621a2.748,2.748,0,0,1-.355-.629c1.066-.981,3.579-2.637,8.69-2.993Z" transform="translate(-173.884 -434.272)" fill="#fff" opacity="0.2"/>
    <path id="Path_252" data-name="Path 252" d="M411.06,569.235l9-.355s-3.643,2.872-6.216,3.131S411.06,569.235,411.06,569.235Z" transform="translate(-302.224 -397.454)" fill="#fff" opacity="0.2"/>
    <path id="Path_253" data-name="Path 253" d="M464.38,631.438s81.419-11.32,101.1-7.72c0,0,5.786.387,7.976,2.7s0,.814,0,.814Z" transform="translate(-336.593 -432.345)" fill="#fff" opacity="0.2"/>
    <path id="Path_254" data-name="Path 254" d="M592.61,552.741s1.031-1.93,2.7-1.973l10.848-.558a2.674,2.674,0,0,1-2.1,2.058Z" transform="translate(-419.246 -385.42)" fill="#18218a" opacity="0.5"/>
    <path id="Path_255" data-name="Path 255" d="M769.21,543.545s1.031-1.93,2.7-1.973L782.759,541a2.673,2.673,0,0,1-2.1,2.058Z" transform="translate(-533.077 -379.484)" fill="#18218a" opacity="0.5"/>
    <path id="Path_256" data-name="Path 256" d="M546.8,473l-8.324,21.831-30.013.032H481.62s4.009-2.943,10.467-6.693c2.133-1.244,4.553-2.573,7.18-3.91,2.417-1.237,5.019-2.488,7.752-3.675,2.133-.938,4.379-1.841,6.675-2.684C524.1,474.1,535.805,471.543,546.8,473Z" transform="translate(-347.705 -335.387)" fill="#8cd0f3"/>
    <path id="Path_257" data-name="Path 257" d="M715.368,488.754s-12.54,1.859-24.507,3.234c-4.574.526-9.064.981-12.739,1.233l-.512.036c-1.422.092-2.74.153-3.86.174a14.206,14.206,0,0,1-3.771-.259l3.458-20.882s4.265.046,10.574.355l1.379.075c1.312.075,2.694.16,4.137.259,2.062.142,4.233.313,6.472.519,10.812.992,23.06,2.772,30.816,5.978C743.32,486.308,715.368,488.754,715.368,488.754Z" transform="translate(-469.116 -335.195)" fill="#8cd0f3"/>
    <path id="Path_258" data-name="Path 258" d="M946.961,548.147v5.573s-9,.128-7.073-1.671a27.582,27.582,0,0,0,3.387-3.91Z" transform="translate(-642.916 -384.086)" fill="#8cd0f3"/>
    <path id="Path_259" data-name="Path 259" d="M984.971,547.554l-7.311.572v-6.7s3.387-4.759,6.774.515l.2.309Z" transform="translate(-667.437 -378.489)" fill="#8cd0f3"/>
    <circle id="Ellipse_49" data-name="Ellipse 49" cx="20.924" cy="20.924" r="20.924" transform="translate(64.869 174.927)" fill="#182a7c"/>
    <path id="Path_260" data-name="Path 260" d="M332.369,607.06a16.84,16.84,0,1,1-.355-3.412,16.84,16.84,0,0,1,.355,3.412Z" transform="translate(-229.792 -411.227)" fill="#3f8ffe"/>
    <ellipse id="Ellipse_50" data-name="Ellipse 50" cx="14.427" cy="14.462" rx="14.427" ry="14.462" transform="translate(71.341 181.367)" fill="#18218a" opacity="0.5"/>
    <path id="Path_261" data-name="Path 261" d="M344.045,590.844v.611l-4.8,15.9-3.853-16.773A16.879,16.879,0,0,1,344.045,590.844Z" transform="translate(-253.45 -411.158)" fill="#3f8ffe"/>
    <path id="Path_262" data-name="Path 262" d="M344.293,654.362a16.882,16.882,0,0,1-8.463.291l3.693-16.083Z" transform="translate(-253.733 -442.374)" fill="#3f8ffe"/>
    <path id="Path_263" data-name="Path 263" d="M363.039,631.369a16.876,16.876,0,0,1-.8,5.168h-.068l-15.9-4.8,16.442-3.775A16.965,16.965,0,0,1,363.039,631.369Z" transform="translate(-260.463 -435.536)" fill="#3f8ffe"/>
    <path id="Path_264" data-name="Path 264" d="M315.713,631.705l-15.9,4.8h-.124a17.018,17.018,0,0,1-.458-8.587Z" transform="translate(-229.92 -435.51)" fill="#3f8ffe"/>
    <circle id="Ellipse_51" data-name="Ellipse 51" cx="1.845" cy="1.845" r="1.845" transform="translate(83.924 193.985)" fill="#182a7c"/>
    <circle id="Ellipse_52" data-name="Ellipse 52" cx="20.924" cy="20.924" r="20.924" transform="translate(253.13 174.927)" fill="#182a7c"/>
    <path id="Path_265" data-name="Path 265" d="M862.049,607.06a16.84,16.84,0,1,1-.355-3.412,16.84,16.84,0,0,1,.355,3.412Z" transform="translate(-571.207 -411.227)" fill="#3f8ffe"/>
    <ellipse id="Ellipse_53" data-name="Ellipse 53" cx="14.427" cy="14.462" rx="14.427" ry="14.462" transform="translate(259.606 181.367)" fill="#18218a" opacity="0.5"/>
    <path id="Path_266" data-name="Path 266" d="M873.715,590.844v.611l-4.8,15.9-3.853-16.773A16.879,16.879,0,0,1,873.715,590.844Z" transform="translate(-594.859 -411.158)" fill="#3f8ffe"/>
    <path id="Path_267" data-name="Path 267" d="M873.973,654.362a16.882,16.882,0,0,1-8.463.291L869.2,638.57Z" transform="translate(-595.149 -442.374)" fill="#3f8ffe"/>
    <path id="Path_268" data-name="Path 268" d="M892.687,631.362a16.874,16.874,0,0,1-.8,5.168H891.8l-15.9-4.805,16.442-3.775A16.973,16.973,0,0,1,892.687,631.362Z" transform="translate(-601.846 -435.529)" fill="#3f8ffe"/>
    <path id="Path_269" data-name="Path 269" d="M845.383,631.705l-15.9,4.8h-.124a17.018,17.018,0,0,1-.458-8.587Z" transform="translate(-571.329 -435.51)" fill="#3f8ffe"/>
    <circle id="Ellipse_54" data-name="Ellipse 54" cx="1.845" cy="1.845" r="1.845" transform="translate(272.188 193.985)" fill="#182a7c"/>
    <path id="Path_270" data-name="Path 270" d="M511.208,505.5l-5.257,10.6H500.14l3.885-6.686C506.168,508.166,508.582,506.84,511.208,505.5Z" transform="translate(-359.643 -356.602)" fill="#fff" opacity="0.2"/>
    <path id="Path_271" data-name="Path 271" d="M548.353,487.61l-5.235,16.943H535.39l6.291-14.267C543.828,489.355,546.06,488.459,548.353,487.61Z" transform="translate(-382.364 -345.07)" fill="#fff" opacity="0.2"/>
    <path id="Path_272" data-name="Path 272" d="M696.388,473.68l-11.406,20.228-.512.036c-1.422.092-2.74.153-3.86.174l10.261-20.768,1.379.075C693.544,473.5,694.937,473.581,696.388,473.68Z" transform="translate(-475.968 -335.879)" fill="#fff" opacity="0.2"/>
    <path id="Path_273" data-name="Path 273" d="M365.531,448.63l-6.512,44.852,54.384-1.191,8.928-43.466Z" transform="translate(-231.418 -289.207)" fill="none" stroke="#fff" stroke-miterlimit="10" stroke-width="1" opacity="0.2"/>
    <path id="Path_274" data-name="Path 274" d="M536.484,667.433c-.786.355-2.637,1.294-2.9,2.769H412.158l-2.488-.021a25.674,25.674,0,0,0,1.422-2.751Z" transform="translate(-301.328 -460.977)" fill="#18218a" opacity="0.5"/>
    <path id="Path_275" data-name="Path 275" d="M438.608,742.43a5.66,5.66,0,0,0,1.848-2.787,2.482,2.482,0,0,0-1.29-2.843c-1.184-.455-2.452.355-3.412,1.2s-2.062,1.777-3.316,1.6A5.051,5.051,0,0,0,434,734.87a1.976,1.976,0,0,0-.434-.96c-.657-.711-1.852-.4-2.637.153-2.488,1.777-3.2,5.164-3.217,8.228a15.656,15.656,0,0,1-.046-3.391,3.485,3.485,0,0,0-1.272-3,3.835,3.835,0,0,0-1.941-.455,4.005,4.005,0,0,0-3.149.9,3.125,3.125,0,0,0,.124,3.867,12.3,12.3,0,0,0,3.259,2.612,7.229,7.229,0,0,1,2.328,2.221,2.2,2.2,0,0,1,.174.4h7.059A19.676,19.676,0,0,0,438.608,742.43Z" transform="translate(-308.428 -503.561)" fill="#6c63ff"/>
    <path id="Path_276" data-name="Path 276" d="M862.219,763.512a4.149,4.149,0,0,0,1.361-2.054,1.823,1.823,0,0,0-.953-2.094,2.669,2.669,0,0,0-2.516.885,3.348,3.348,0,0,1-2.449,1.18,3.725,3.725,0,0,0,1.152-3.487,1.46,1.46,0,0,0-.32-.711c-.487-.519-1.365-.295-1.948.114-1.848,1.3-2.364,3.81-2.374,6.071a11.633,11.633,0,0,1-.036-2.488,2.569,2.569,0,0,0-.938-2.211,2.846,2.846,0,0,0-1.422-.338,2.96,2.96,0,0,0-2.324.661,2.286,2.286,0,0,0,.092,2.844,9.252,9.252,0,0,0,2.406,1.926,5.332,5.332,0,0,1,1.72,1.639,1.62,1.62,0,0,1,.128.291h5.207A14.514,14.514,0,0,0,862.219,763.512Z" transform="translate(-584.504 -518.666)" fill="#6c63ff"/>
    <path id="Path_277" data-name="Path 277" d="M927.219,795.322a4.148,4.148,0,0,0,1.361-2.054,1.824,1.824,0,0,0-.953-2.094,2.669,2.669,0,0,0-2.517.885,3.347,3.347,0,0,1-2.449,1.18,3.725,3.725,0,0,0,1.152-3.487,1.455,1.455,0,0,0-.32-.711c-.487-.519-1.365-.3-1.948.114-1.848,1.3-2.364,3.81-2.374,6.071a11.64,11.64,0,0,1-.035-2.488,2.569,2.569,0,0,0-.938-2.211,2.843,2.843,0,0,0-1.422-.338,2.96,2.96,0,0,0-2.325.661,2.286,2.286,0,0,0,.092,2.843,9.251,9.251,0,0,0,2.406,1.926,5.33,5.33,0,0,1,1.72,1.638,1.626,1.626,0,0,1,.128.292h5.207A14.513,14.513,0,0,0,927.219,795.322Z" transform="translate(-626.401 -539.169)" fill="#6c63ff"/>
    <path id="Path_278" data-name="Path 278" d="M600.191,594.257s-1.24.675-1.806-3.149c-.355-2.488-1.39-7.617-2.069-10.947l-.085-.423a5.766,5.766,0,0,0,.572-.213s-3.952-15.284-3.05-18.667,0-9.447,0-9.447l-2.371-7.983s-5.872-2.026-8.129-2.588-8.58-4.5-8.58-4.5a4.87,4.87,0,0,1,.306.394l-.252-.153a9.421,9.421,0,0,1-1.244-1.422,8.95,8.95,0,0,0,2.339-4.862,10.1,10.1,0,0,0-.5-10.268,5.039,5.039,0,0,0,.864-1.614,2.636,2.636,0,0,0,.1-.825,2.193,2.193,0,0,0-1.237-2.179,2.157,2.157,0,0,0-1.7.018,7.314,7.314,0,0,1-1.443.768c-.913.188-1.7-.544-2.413-1.088a7.261,7.261,0,0,0-3.835-1.422,3.724,3.724,0,0,0-1.777.235,7.151,7.151,0,0,0-1.471,1.105c-1.628,1.312-3.91,1.678-5.953,2.392-.391.135-.825.355-.9.711a.52.52,0,0,0,0,.213h0a.527.527,0,0,0,.021.27,20.007,20.007,0,0,0-7.539,3.533l-.626.579a1.194,1.194,0,0,0-1.3.11l-1.258.988a1.184,1.184,0,0,0-.284,1.543l-9.2,8.53-.2.185v-.032s-7.109,5.4-7.109,9.22c0,2.762,2.133,4.464,3.295,5.2a8.815,8.815,0,0,0-2.3,3.554h0v.864h0v.121l-.028.156v.064l-.018.107v.22l-.025.142h0l-.032.178v.036l-.025.149v.071l-.028.164v.043l-.032.185v.082l-.082.466h0l-.043.252v.043l-.046.259v.036l-.046.263v.021l-.05.277v.06l-.05.274v.06l-.046.27v.032l-.053.306v.057l-.121.682h0l-.06.355v.053l-.06.355v.025l-.132.711v.06l-.064.355v.05l-.139.75v.032l-.071.38v.032l-.142.775v.05l-.071.384v.028l-.149.793v.043l-.075.391v.029l-.153.8v.032l-.075.391v.032l-.65.8v.036l-.078.387v.021l-.16.789v.021l-.078.384v.021l-.156.753v.032l-.075.355v.032l-.153.711v.025l-.075.355v.036l-.149.672v.018l-.071.316v.032q-.075.32-.146.618h0l-.071.292v.025q-.071.292-.139.558h0l-.068.256v.028L525,572.7a6.2,6.2,0,0,1-.711,1.944,2,2,0,0,0-.416.654h0l-.028.071-.028.078-.025.078-.117.107-.025.082-.021.075-.021.085v.078l-.018.085v.078a.538.538,0,0,1-.028.171v2.8l1.066.323s.537.3,1.365.679c-.117,3.586-.448,8.442-1.347,11.413-2,.1-6.956.313-7.852-.046-1.13-.451-8.356-1.575-6.1,3.6a11.521,11.521,0,0,0,5.072,4.976,6.323,6.323,0,0,1-.782.2c-1.841.355-2.353.97-2.282,1.6-.131,1.066,1.681,2.257,1.831,2.332.227.114,7.9,1.351,9.71.785s9.145-1.912,9.145-1.912v-.224h0s-.1-2.211-.377-4.308c.832-.121,1.738-.231,2.62-.3a3.576,3.576,0,0,0,1.934,2.47c4.855,2.488,6.437-.9,6.437-.9s6.565,1.262,10.233.355a10.779,10.779,0,0,0,.942.778c1.191.857,4.4,1.443,7.983,1.486a11.309,11.309,0,0,0,2.865-.082,26.541,26.541,0,0,0,4.692-.736c4.318-1.12,5.267-5.136,5.474-6.959.171-.05.291-.227.355-.562a1.617,1.617,0,0,0,.149-.579,17.09,17.09,0,0,1,.462-2.445l5.331.3c2.381,4.322,4.486,7.759,4.486,7.759l3.611-.451a20.859,20.859,0,0,1-4.176-4.5c-1.806-2.7-1.806-15.639-1.806-15.639l.2-7.88v-.3c.334,2.335,2.982,9.11,3.281,9.209.217.071.43.135.64.2l.192.5c1.507,4,5.331,14.217,5.6,15.831.355,2.026,14.452,2.811,17.612,1.8S600.191,594.257,600.191,594.257ZM549.837,549.5l-5.168,7.763a51.524,51.524,0,0,0-5.538-8.09C543.717,549.327,549,549.49,549.837,549.5Zm-.786-19.9a1.2,1.2,0,0,0,1.248-.139l.441-.355a1.184,1.184,0,0,0,.3-1.521l.263-.259a39.309,39.309,0,0,0,5.374-1.3,10.033,10.033,0,0,0,1.315,4.564,8.9,8.9,0,0,0,.867,2.559c-.81-.068-1.692-.114-2.534-.107a13.24,13.24,0,0,0-2.2.139c-2.708.451-3.05,5.4-3.05,5.4s-5.442,1.912-8.712,1.98a4.1,4.1,0,0,1-1.223-.181l-.331-.021.444-1.216s-.192.06-.508.124q.153-.231.32-.469a85.745,85.745,0,0,1,7.983-9.184Zm-11.182,60.05a20.989,20.989,0,0,0-1.12,2.2c-1.283.249-3.032.387-3.959-.405a2.311,2.311,0,0,0-1.486-.522l.021-.043a27.6,27.6,0,0,0,1.61-6.817,7.232,7.232,0,0,0,4.034-1.731l2.605.892.1.181.064.117.1.192.064.121.1.188.068.121.1.185.068.121.1.181.068.121.1.181.068.117.1.178.064.114.1.178.064.11.1.174.064.11.1.174.06.1.1.171.06.1.1.171.053.089.107.174.039.064c.185.3.355.59.53.86l.025.039.1.156.043.068.089.142.05.075.082.128.05.082.075.117.053.082.071.11.05.078.064.1.05.078.06.092.05.078.057.085.05.075h0A22.888,22.888,0,0,1,537.87,589.647Z" transform="translate(-366.169 -361.864)" fill="url(#linear-gradient)"/>
    <path id="Path_279" data-name="Path 279" d="M751.244,711.78c-3.082.992-16.84.22-17.171-1.777-.263-1.589-3.992-11.587-5.463-15.5l-.59-1.564,7.155-1.543s.263,1.255.626,3.042c.661,3.263,1.66,8.3,2.015,10.716.551,3.743,1.777,3.082,1.777,3.082S754.315,710.789,751.244,711.78Z" transform="translate(-506.527 -476.427)" fill="#ffbdc6"/>
    <path id="Path_280" data-name="Path 280" d="M667.029,566s-.551,3.3,4.183,6.4.661,14.2.661,14.2l-3.5.2A8.6,8.6,0,0,1,659.323,579h0s1.98-3.2-1.653-11.448Z" transform="translate(-461.182 -395.598)" fill="#ffbdc6"/>
    <path id="Path_281" data-name="Path 281" d="M595.217,538.9s-6.814,6.643-9.98,11.221a16.161,16.161,0,0,0-1.027,1.656c-2.31,4.4-7.684-2.755-5.826-5.228l1.283-1.2,12.355-11.516s8.477-6.6,12.767-1.87S595.217,538.9,595.217,538.9Z" transform="translate(-409.829 -372.556)" fill="#ffbdc6"/>
    <circle id="Ellipse_55" data-name="Ellipse 55" cx="9.906" cy="9.906" r="9.906" transform="translate(190.617 154.727)" fill="#a66477"/>
    <path id="Path_282" data-name="Path 282" d="M528.629,730.33s-7.375.441-8.477,0-8.143-1.539-5.929,3.526,10.567,7.155,10.567,7.155l6.042-1.543Z" transform="translate(-368.444 -501.253)" fill="#7679b4"/>
    <path id="Path_283" data-name="Path 283" d="M528.629,730.33s-7.375.441-8.477,0-8.143-1.539-5.929,3.526,10.567,7.155,10.567,7.155l6.042-1.543Z" transform="translate(-368.444 -501.253)" opacity="0.05"/>
    <path id="Path_284" data-name="Path 284" d="M615.965,670.08l14.8,6.014,8.42,17.885s.11,6.273-5.392,7.706-13.208.771-15.191-.661-10.126-9.906-10.126-9.906Z" transform="translate(-429.475 -462.685)" fill="#7679b4"/>
    <path id="Path_285" data-name="Path 285" d="M614.96,670.08l12.813,4.8,7.29,14.313s.1,5.022-4.667,6.167-11.434.615-13.151-.53-8.765-7.93-8.765-7.93Z" transform="translate(-429.475 -462.685)" opacity="0.05"/>
    <path id="Path_286" data-name="Path 286" d="M573.265,730.15s-3.853,1.322-5.392,0-4.294.331-4.294.331l1.216,7.155s5.5-1.212,8.477-.881Z" transform="translate(-400.534 -501.074)" fill="#ffbdc6"/>
    <path id="Path_287" data-name="Path 287" d="M573.265,730.15s-3.853,1.322-5.392,0-4.294.331-4.294.331l1.216,7.155s5.5-1.212,8.477-.881Z" transform="translate(-400.534 -501.074)" opacity="0.05"/>
    <path id="Path_288" data-name="Path 288" d="M577.685,666.288l-3.515-1.212s-3.853,3.412-6.4.551,2.31-14.75,2.31-14.75l5.172-8.367L579,654.289l3.412,5.722Z" transform="translate(-402.76 -444.914)" fill="#565388"/>
    <path id="Path_289" data-name="Path 289" d="M577.685,666.288l-3.515-1.212s-3.853,3.412-6.4.551,2.31-14.75,2.31-14.75l5.172-8.367L579,654.289l3.412,5.722Z" transform="translate(-402.76 -444.914)" opacity="0.05"/>
    <path id="Path_290" data-name="Path 290" d="M586.037,621.07l7.926,1.1,1.543,7.265-9.8-.551Z" transform="translate(-377.535 -400.357)" fill="#565388"/>
    <path id="Path_291" data-name="Path 291" d="M586.037,621.07l7.926,1.1,1.543,7.265-9.8-.551Z" transform="translate(-377.535 -400.357)" opacity="0.05"/>
    <path id="Path_292" data-name="Path 292" d="M633.74,595.45s3.3,12.657,13.862,3.522l2.861,36.321s-3.522,5.612-4.073,10.663-10.126-15.639-15.849-15.738-11.392-8.09-11.392-8.09l6.44-13.265Z" transform="translate(-436.353 -414.581)" opacity="0.1"/>
    <path id="Path_293" data-name="Path 293" d="M634.05,594.52s3.3,12.657,13.862,3.522l2.861,36.321s-3.522,5.612-4.073,10.663-10.126-15.639-15.849-15.739-11.391-8.09-11.391-8.09l6.44-13.265Z" transform="translate(-436.553 -413.981)" fill="#f2f1f2"/>
    <path id="Path_294" data-name="Path 294" d="M596.263,570.754a29.28,29.28,0,0,0-7.265-.331c-2.644.441-2.971,5.282-2.971,5.282s-7.485,2.641-10.016,1.777c0,0-12.44-.882-12.44,2.861s3.967,5.481,3.967,5.481,17.27.583,17.391.551c3.963-1.1-.11,0-.11,0l-7.155,10.787,6.6,9.135,7.045-5.172s.881-4.845,3.2-7.265c1.649-1.731,3.807-9.522,4.9-13.833a7.073,7.073,0,0,0-.8-5.4Z" transform="translate(-400.528 -398.362)" opacity="0.1"/>
    <path id="Path_295" data-name="Path 295" d="M585.237,577.49a16.148,16.148,0,0,0-1.027,1.656c-2.31,4.4-7.684-2.755-5.826-5.228l1.283-1.2C579.2,578.4,583.822,577.8,585.237,577.49Z" transform="translate(-409.829 -399.93)" opacity="0.1"/>
    <path id="Path_296" data-name="Path 296" d="M623.124,613.452H623S627.087,612.35,623.124,613.452Z" transform="translate(-438.834 -425.868)" opacity="0.1"/>
    <path id="Path_297" data-name="Path 297" d="M595.339,570.754a29.281,29.281,0,0,0-7.265-.331c-2.644.441-2.971,5.282-2.971,5.282s-7.485,2.641-10.016,1.777l.441-1.212s-6.711,2.09-5.943-4.965c0,0-6.935,5.282-6.935,9.024s3.963,5.495,3.963,5.495,17.27.583,17.391.551c3.963-1.1-.11,0-.11,0l-7.155,10.787,6.6,9.135,7.045-5.172s.881-4.845,3.2-7.265c1.649-1.731,3.807-9.522,4.9-13.833a7.073,7.073,0,0,0-.8-5.4Z" transform="translate(-399.935 -398.362)" fill="#565388"/>
    <path id="Path_298" data-name="Path 298" d="M718.356,672.25v.6a1.316,1.316,0,0,1,0-.6Z" transform="translate(-500.275 -464.083)" opacity="0.1"/>
    <path id="Path_299" data-name="Path 299" d="M735.8,694.482a12.579,12.579,0,0,1-7.19.064l-.59-1.564,7.155-1.543S735.434,692.705,735.8,694.482Z" transform="translate(-506.527 -476.453)" opacity="0.1"/>
    <path id="Path_300" data-name="Path 300" d="M689.62,579.34s6.163,3.853,8.367,4.4,7.926,2.531,7.926,2.531l2.31,7.819s.881,5.943,0,9.241-9.135,9.575-8.694,8.584l-.22,8.694s0,12.657,1.777,15.284-3.359-2.588-3.359-2.588-6.22-9.191-6.988-15.024.437-28.267.437-28.267l-1.1-1.543S692.371,582.532,689.62,579.34Z" transform="translate(-481.776 -404.197)" opacity="0.1"/>
    <path id="Path_301" data-name="Path 301" d="M690.55,579.34s6.163,3.853,8.367,4.4,7.926,2.531,7.926,2.531l2.31,7.819s.881,5.943,0,9.241,2.971,18.273,2.971,18.273a12.267,12.267,0,0,1-8.477,0c-.331-.11-3.632-8.694-3.2-9.685l-.22,8.694s0,12.657,1.777,15.284a20.386,20.386,0,0,0,4.073,4.4l-3.522.441s-10.137-16.606-10.908-22.428.441-28.289.441-28.289l-1.1-1.543S693.3,582.532,690.55,579.34Z" transform="translate(-482.375 -404.197)" fill="#565388"/>
    <path id="Path_302" data-name="Path 302" d="M569.914,650.724s-7.375-10.663-7.045-15.639c0,0-.881,6.824-1.87,7.265s-10.9-2.644-10.9-2.644-.441-3.2.661-4.294,4.514-21.464,4.514-21.464,1.212-5.5,6.494-5.833,17.171,26.526,17.171,26.526S580.7,650.724,569.914,650.724Z" transform="translate(-391.79 -422.742)" fill="#7679b4"/>
    <path id="Path_303" data-name="Path 303" d="M551.676,687.11s.22,15.408-2.531,17.942,8.036,3.853,8.036,3.853-1.87-3.743-.331-6.714,2.531-15.081,2.531-15.081Z" transform="translate(-390.941 -473.662)" fill="#ffbdc6"/>
    <path id="Path_304" data-name="Path 304" d="M534.013,734.454s-1.1-2.751-4.073-.551c0,0-2.641,6.163-7.265,7.045s-.661,3.522-.441,3.632,7.706,1.322,9.465.771,8.914-1.87,8.914-1.87-.331-7.265-1.422-7.819S538.637,738.957,534.013,734.454Z" transform="translate(-372.729 -503.274)" opacity="0.05"/>
    <path id="Path_305" data-name="Path 305" d="M534.013,735.044s-1.1-2.751-4.073-.551c0,0-2.641,6.163-7.265,7.045s-.661,3.522-.441,3.633,7.706,1.322,9.465.771,8.918-1.866,8.918-1.866-.331-7.265-1.422-7.819S538.637,739.555,534.013,735.044Z" transform="translate(-372.729 -503.654)" fill="#7679b4"/>
    <path id="Path_306" data-name="Path 306" d="M610.844,542.057a51.252,51.252,0,0,0,3,4.183,1.162,1.162,0,0,1-.167,1.67l-.43.338a1.162,1.162,0,0,1-1.656-.231,13.127,13.127,0,0,0-3.554-3.366,1.162,1.162,0,0,1-.107-1.9l1.226-.967a1.162,1.162,0,0,1,1.688.27Z" transform="translate(-428.836 -379.83)" fill="#565388"/>
    <path id="Path_307" data-name="Path 307" d="M668.517,570.5a5.2,5.2,0,0,1-1.152-3.586L658,568.467a30.213,30.213,0,0,1,1.6,4.489A8.8,8.8,0,0,0,668.517,570.5Z" transform="translate(-461.394 -396.185)" opacity="0.1"/>
    <circle id="Ellipse_56" data-name="Ellipse 56" cx="8.804" cy="8.804" r="8.804" transform="translate(191.775 159.185)" fill="#ffbdc6"/>
    <path id="Path_308" data-name="Path 308" d="M645.175,527.719a21.953,21.953,0,0,1,2.413-.668,4.019,4.019,0,0,1,2.779,1.333,6.649,6.649,0,0,0,2.509,1.813,6.208,6.208,0,0,0,2.012.135,1.869,1.869,0,0,0,1.066-.27,1.344,1.344,0,0,0,.355-.544,5.172,5.172,0,0,0-.032-4.191.711.711,0,0,1-.1-.455.691.691,0,0,1,.153-.252,7.7,7.7,0,0,0,1.749-2.694,2.255,2.255,0,0,0-1.113-2.719,2.093,2.093,0,0,0-1.656,0,6.713,6.713,0,0,1-1.422.75c-.892.185-1.656-.533-2.353-1.066A7.062,7.062,0,0,0,647.8,517.5a3.619,3.619,0,0,0-1.745.231,6.978,6.978,0,0,0-1.422,1.066c-1.589,1.283-3.814,1.642-5.8,2.342-.38.135-.8.334-.874.711s.355.757.782.921a2.862,2.862,0,0,1,1.2.6c.355.427.242,1.031.306,1.567.132,1.066,1.066,1.646,2.1,1.955C643.2,527.165,644.325,527.862,645.175,527.719Z" transform="translate(-448.469 -364.32)" opacity="0.1"/>
    <path id="Path_309" data-name="Path 309" d="M645.265,527.151a21.916,21.916,0,0,1,2.413-.668,4.018,4.018,0,0,1,2.779,1.333,6.649,6.649,0,0,0,2.509,1.813,6.2,6.2,0,0,0,2.012.135,1.869,1.869,0,0,0,1.066-.27,1.342,1.342,0,0,0,.355-.544,5.172,5.172,0,0,0-.032-4.191.712.712,0,0,1-.1-.455.692.692,0,0,1,.153-.252,7.7,7.7,0,0,0,1.749-2.694,2.255,2.255,0,0,0-1.113-2.719,2.093,2.093,0,0,0-1.656,0,6.713,6.713,0,0,1-1.422.75c-.892.185-1.656-.533-2.353-1.066a7.063,7.063,0,0,0-3.686-1.365,3.618,3.618,0,0,0-1.745.231,6.978,6.978,0,0,0-1.422,1.066c-1.589,1.283-3.814,1.642-5.8,2.342-.38.135-.8.334-.874.711s.355.757.782.921a2.859,2.859,0,0,1,1.2.6c.355.426.242,1.031.306,1.567.131,1.066,1.066,1.646,2.1,1.955C643.292,526.6,644.415,527.293,645.265,527.151Z" transform="translate(-448.56 -363.972)" fill="#a66477"/>
    <path id="Path_310" data-name="Path 310" d="M638.29,664.84s6.287,1.066,7.859,4.461,11.018,12.579,11.018,12.579" transform="translate(-448.69 -459.307)" opacity="0.05"/>
    <g id="Group_8" data-name="Group 8" transform="translate(158.224 190.53)" opacity="0.05">
      <path id="Path_311" data-name="Path 311" d="M561.219,692.263c-.992.441-10.9-2.641-10.9-2.641a10.514,10.514,0,0,1,.032-2.883,8.775,8.775,0,0,0-.252,3.654s9.906,3.082,10.9,2.641c.327-.146.643-.992.921-2.061C561.7,691.659,561.464,692.164,561.219,692.263Z" transform="translate(-550.013 -663.953)"/>
      <path id="Path_312" data-name="Path 312" d="M558.11,622.63a6.472,6.472,0,0,0-.206.682s-2.388,14.263-3.814,19.549C555.409,638.571,557.9,623.9,558.11,622.63Z" transform="translate(-552.641 -622.63)"/>
      <path id="Path_313" data-name="Path 313" d="M593.451,697.459s-7.375-10.663-7.045-15.639c0,0-.078.618-.217,1.493.334,5.2,7.041,14.921,7.041,14.921,5.129,0,7.421-3.632,8.413-7.446C600.549,694.3,598.236,697.459,593.451,697.459Z" transform="translate(-573.332 -660.782)"/>
    </g>
    <path id="Path_314" data-name="Path 314" d="M552.8,687.655s6.725,3.7,9.149,1.941.881-4.514.881-4.514L560.953,682H554.68l-2.09,3.632Z" transform="translate(-393.45 -470.368)" fill="#7679b4"/>
    <path id="Path_315" data-name="Path 315" d="M618.237,722.556s.441-8.8-10.787-8.694-.441,0-.441,0-4.4-1.322-9.906,1.777a21.956,21.956,0,0,1-11.779,2.42s-5.065,8.367-.331,10.787,6.273-.9,6.273-.9,9.685,1.87,11.889-.661a11.3,11.3,0,0,0,12.216,2.438S620.878,727.286,618.237,722.556Z" transform="translate(-413.033 -490.724)" fill="#7679b4"/>
  </g>
</svg>
