<svg xmlns="http://www.w3.org/2000/svg" width="514.428" height="430.742" viewBox="0 0 514.428 430.742">
  <g id="Group_18" data-name="Group 18" transform="translate(0 0)">
    <circle id="Ellipse_113" data-name="Ellipse 113" cx="37.99" cy="37.99" r="37.99" transform="translate(106.469 21.48)" fill="#ff6584"/>
    <path id="Path_383" data-name="Path 383" d="M599.533,91.723h-45.57V50.3Z" transform="translate(-233.233 -21.176)" fill="#3f3d56"/>
    <rect id="Rectangle_62" data-name="Rectangle 62" width="229.245" height="316.716" transform="translate(142.379 69.191)" fill="#e6e6e6"/>
    <rect id="Rectangle_63" data-name="Rectangle 63" width="26.97" height="56.83" transform="translate(165.25 91.397)" fill="#fff"/>
    <rect id="Rectangle_64" data-name="Rectangle 64" width="26.97" height="56.83" transform="translate(206.967 91.397)" fill="#fff"/>
    <rect id="Rectangle_65" data-name="Rectangle 65" width="26.97" height="56.83" transform="translate(161.696 171.946)" fill="#fff"/>
    <rect id="Rectangle_66" data-name="Rectangle 66" width="26.97" height="56.83" transform="translate(206.967 171.946)" fill="#fff"/>
    <rect id="Rectangle_67" data-name="Rectangle 67" width="26.97" height="56.83" transform="translate(161.696 246.475)" fill="#fff"/>
    <rect id="Rectangle_68" data-name="Rectangle 68" width="26.97" height="56.83" transform="translate(205.951 245.459)" fill="#fff"/>
    <rect id="Rectangle_69" data-name="Rectangle 69" width="26.97" height="56.83" transform="translate(245.151 329.204)" fill="#ccc"/>
    <rect id="Rectangle_70" data-name="Rectangle 70" width="26.97" height="56.83" transform="translate(285.898 245.459)" fill="#fff"/>
    <rect id="Rectangle_71" data-name="Rectangle 71" width="26.97" height="56.83" transform="translate(331.169 245.459)" fill="#fff"/>
    <rect id="Rectangle_72" data-name="Rectangle 72" width="26.97" height="56.83" transform="translate(286.914 171.344)" fill="#fff"/>
    <rect id="Rectangle_73" data-name="Rectangle 73" width="26.97" height="56.83" transform="translate(332.185 171.344)" fill="#fff"/>
    <rect id="Rectangle_74" data-name="Rectangle 74" width="26.97" height="56.83" transform="translate(286.914 91.397)" fill="#fff"/>
    <rect id="Rectangle_75" data-name="Rectangle 75" width="26.97" height="56.83" transform="translate(332.185 91.397)" fill="#fff"/>
    <rect id="Rectangle_76" data-name="Rectangle 76" width="229.245" height="8.669" transform="translate(142.379 142.395)" fill="#3f3d56"/>
    <rect id="Rectangle_77" data-name="Rectangle 77" width="229.245" height="4.816" transform="translate(142.379 209.82)" fill="#3f3d56"/>
    <rect id="Rectangle_78" data-name="Rectangle 78" width="229.245" height="4.816" transform="translate(142.379 194.409)" fill="#3f3d56"/>
    <rect id="Rectangle_79" data-name="Rectangle 79" width="38.529" height="4.816" transform="translate(165.015 268.576) rotate(90)" fill="#3f3d56"/>
    <rect id="Rectangle_80" data-name="Rectangle 80" width="38.529" height="4.816" transform="translate(191.985 268.576) rotate(90)" fill="#3f3d56"/>
    <rect id="Rectangle_81" data-name="Rectangle 81" width="38.529" height="4.816" transform="translate(218.955 268.576) rotate(90)" fill="#3f3d56"/>
    <rect id="Rectangle_82" data-name="Rectangle 82" width="38.529" height="4.816" transform="translate(245.925 268.576) rotate(90)" fill="#3f3d56"/>
    <rect id="Rectangle_83" data-name="Rectangle 83" width="38.529" height="4.816" transform="translate(272.895 268.576) rotate(90)" fill="#3f3d56"/>
    <rect id="Rectangle_84" data-name="Rectangle 84" width="38.529" height="4.816" transform="translate(299.865 268.576) rotate(90)" fill="#3f3d56"/>
    <rect id="Rectangle_85" data-name="Rectangle 85" width="38.529" height="4.816" transform="translate(326.835 268.576) rotate(90)" fill="#3f3d56"/>
    <rect id="Rectangle_86" data-name="Rectangle 86" width="38.529" height="4.816" transform="translate(353.805 268.576) rotate(90)" fill="#3f3d56"/>
    <rect id="Rectangle_87" data-name="Rectangle 87" width="38.529" height="4.816" transform="translate(165.496 195.372) rotate(90)" fill="#3f3d56"/>
    <rect id="Rectangle_88" data-name="Rectangle 88" width="38.529" height="4.816" transform="translate(192.466 195.372) rotate(90)" fill="#3f3d56"/>
    <rect id="Rectangle_89" data-name="Rectangle 89" width="38.529" height="4.816" transform="translate(219.436 195.372) rotate(90)" fill="#3f3d56"/>
    <rect id="Rectangle_90" data-name="Rectangle 90" width="38.529" height="4.816" transform="translate(246.406 195.372) rotate(90)" fill="#3f3d56"/>
    <rect id="Rectangle_91" data-name="Rectangle 91" width="38.529" height="4.816" transform="translate(273.376 195.372) rotate(90)" fill="#3f3d56"/>
    <rect id="Rectangle_92" data-name="Rectangle 92" width="38.529" height="4.816" transform="translate(300.346 195.372) rotate(90)" fill="#3f3d56"/>
    <rect id="Rectangle_93" data-name="Rectangle 93" width="38.529" height="4.816" transform="translate(327.317 195.372) rotate(90)" fill="#3f3d56"/>
    <rect id="Rectangle_94" data-name="Rectangle 94" width="38.529" height="4.816" transform="translate(354.287 195.372) rotate(90)" fill="#3f3d56"/>
    <rect id="Rectangle_95" data-name="Rectangle 95" width="38.529" height="4.816" transform="translate(165.496 109.646) rotate(90)" fill="#3f3d56"/>
    <rect id="Rectangle_96" data-name="Rectangle 96" width="38.529" height="4.816" transform="translate(192.466 109.646) rotate(90)" fill="#3f3d56"/>
    <rect id="Rectangle_97" data-name="Rectangle 97" width="38.529" height="4.816" transform="translate(219.436 109.646) rotate(90)" fill="#3f3d56"/>
    <rect id="Rectangle_98" data-name="Rectangle 98" width="38.529" height="4.816" transform="translate(246.406 109.646) rotate(90)" fill="#3f3d56"/>
    <rect id="Rectangle_99" data-name="Rectangle 99" width="38.529" height="4.816" transform="translate(273.376 109.646) rotate(90)" fill="#3f3d56"/>
    <rect id="Rectangle_100" data-name="Rectangle 100" width="38.529" height="4.816" transform="translate(300.346 109.646) rotate(90)" fill="#3f3d56"/>
    <rect id="Rectangle_101" data-name="Rectangle 101" width="38.529" height="4.816" transform="translate(327.317 109.646) rotate(90)" fill="#3f3d56"/>
    <rect id="Rectangle_102" data-name="Rectangle 102" width="38.529" height="4.816" transform="translate(354.287 109.646) rotate(90)" fill="#3f3d56"/>
    <rect id="Rectangle_103" data-name="Rectangle 103" width="229.245" height="4.816" transform="translate(142.379 123.131)" fill="#3f3d56"/>
    <rect id="Rectangle_104" data-name="Rectangle 104" width="229.245" height="4.816" transform="translate(142.379 107.719)" fill="#3f3d56"/>
    <rect id="Rectangle_105" data-name="Rectangle 105" width="229.245" height="8.669" transform="translate(142.379 226.195)" fill="#3f3d56"/>
    <rect id="Rectangle_106" data-name="Rectangle 106" width="250.344" height="12.918" transform="translate(131.83 65.627)" fill="#3f3d56"/>
    <path id="Path_384" data-name="Path 384" d="M321.366,580.888V568.6H306.62v12.289h14.746Z" transform="translate(-129.095 -239.395)" fill="#fff"/>
    <path id="Path_385" data-name="Path 385" d="M320.137,606.8H306.62v12.289h14.746V606.8Z" transform="translate(-129.095 -255.48)" fill="#fff"/>
    <rect id="Rectangle_107" data-name="Rectangle 107" width="14.746" height="12.289" transform="translate(202.102 329.204)" fill="#fff"/>
    <rect id="Rectangle_108" data-name="Rectangle 108" width="14.746" height="12.289" transform="translate(202.102 351.323)" fill="#fff"/>
    <path id="Path_386" data-name="Path 386" d="M529.1,580.888V568.6H514.353v12.289H529.1Z" transform="translate(-216.556 -239.395)" fill="#fff"/>
    <path id="Path_387" data-name="Path 387" d="M527.87,606.8H514.353v12.289H529.1V606.8Z" transform="translate(-216.556 -255.48)" fill="#fff"/>
    <rect id="Rectangle_109" data-name="Rectangle 109" width="14.746" height="12.289" transform="translate(322.374 329.204)" fill="#fff"/>
    <rect id="Rectangle_110" data-name="Rectangle 110" width="14.746" height="12.289" transform="translate(322.374 351.323)" fill="#fff"/>
    <rect id="Rectangle_111" data-name="Rectangle 111" width="229.245" height="8.669" transform="translate(142.379 299.399)" fill="#3f3d56"/>
    <rect id="Rectangle_112" data-name="Rectangle 112" width="229.245" height="4.816" transform="translate(142.379 283.988)" fill="#3f3d56"/>
    <rect id="Rectangle_113" data-name="Rectangle 113" width="229.245" height="4.816" transform="translate(142.379 268.576)" fill="#3f3d56"/>
    <path id="Path_388" data-name="Path 388" d="M499.3,731.547q0-.4-.011-.8c-.206-7.1-7.25-9.026-11.026-5.665a6.55,6.55,0,0,0-8.59,0c-3.792-3.308-10.7-1.52-10.923,5.5q-.013.4-.014.8a41.183,41.183,0,0,0,.271,4.417h30.025a40.762,40.762,0,0,0,.267-4.253Z" transform="translate(-287.523 -349.769)" fill="#6c63ff"/>
    <path id="Path_389" data-name="Path 389" d="M705.414,731.547q0-.4-.011-.8c-.206-7.1-7.25-9.026-11.026-5.665a6.55,6.55,0,0,0-8.59,0c-3.792-3.308-10.7-1.52-10.923,5.5q-.013.4-.014.8a41.175,41.175,0,0,0,.271,4.417h30.025a40.754,40.754,0,0,0,.267-4.253Z" transform="translate(-374.3 -349.769)" fill="#6c63ff"/>
    <path id="Path_390" data-name="Path 390" d="M852.937,601.618h-4.643l1.548-90.707h1.548Z" transform="translate(-357.154 -215.107)" fill="#e6e6e6"/>
    <path id="Path_391" data-name="Path 391" d="M997.354,458.774l7.5-11.584a173.662,173.662,0,0,0-7.69-18l-4.847,3.915,3.838-5.931c-3.657-7.2-6.535-11.736-6.535-11.736s-15.033,23.689-20.055,48.771l9.619,14.865-10.648-8.6a70.26,70.26,0,0,0-.584,8.811c0,29.7,9.7,53.785,21.669,53.785s21.669-24.081,21.669-53.785c0-9.209-2.083-18.843-4.957-27.755Z" transform="translate(-497.701 -220.076)" fill="#e6e6e6"/>
    <path id="Path_392" data-name="Path 392" d="M756.035,448.447H656.97V521.39h.06v14.522l14.522-14.522h84.482Z" transform="translate(-276.602 -188.808)" fill="#6c63ff"/>
    <rect id="Rectangle_114" data-name="Rectangle 114" width="87.89" height="3.474" transform="translate(266.265 415.421)" fill="#e6e6e6"/>
    <rect id="Rectangle_115" data-name="Rectangle 115" width="88.365" height="3.474" transform="translate(426.062 415.421)" fill="#e6e6e6"/>
    <rect id="Rectangle_116" data-name="Rectangle 116" width="88.004" height="3.474" transform="translate(106.469 415.421)" fill="#e6e6e6"/>
    <rect id="Rectangle_117" data-name="Rectangle 117" width="514.066" height="0.969" transform="translate(0 385.955)" fill="#3f3d56"/>
    <rect id="Rectangle_118" data-name="Rectangle 118" width="10.35" height="1.643" transform="matrix(-1, -0.001, 0.001, -1, 413.541, 402.691)" fill="#3f3d56"/>
    <path id="Path_393" data-name="Path 393" d="M722.892,742.09l2.135.494,81.154.043.73-1.7a17.162,17.162,0,0,0,1.262-9.28c-.35-2.348-1.225-4.681-3.215-5.695l-3.6-23.987-44.9-.08L739.087,715.9s-8.194-.147-12.646,5.395a13.009,13.009,0,0,0-2.721,7.164l-.176,2.883Z" transform="translate(-394.527 -340.679)" fill="#6c63ff"/>
    <circle id="Ellipse_114" data-name="Ellipse 114" cx="10.021" cy="10.021" r="10.021" transform="translate(336.168 390.989)" fill="#3f3d56"/>
    <circle id="Ellipse_115" data-name="Ellipse 115" cx="5.274" cy="5.274" r="5.274" transform="translate(340.915 395.736)" fill="#ccc"/>
    <circle id="Ellipse_116" data-name="Ellipse 116" cx="10.021" cy="10.021" r="10.021" transform="translate(385.616 391.015)" fill="#3f3d56"/>
    <circle id="Ellipse_117" data-name="Ellipse 117" cx="5.274" cy="5.274" r="5.274" transform="translate(390.363 395.762)" fill="#ccc"/>
    <path id="Path_394" data-name="Path 394" d="M607.043,638.2l24.242.01h2.959l5,0v-.365l0-4.393,0-4.933h-3.323l-2.96,0-5.241,0h-2.959l-6.051,0Z" transform="translate(-255.581 -264.62)" fill="#fff"/>
    <path id="Path_395" data-name="Path 395" d="M669.466,638.227l12.812.007,0-2.514v-4.393l0-2.784h-1.876l-2.959,0-7.98,0Z" transform="translate(-281.863 -264.63)" fill="#fff"/>
    <rect id="Rectangle_119" data-name="Rectangle 119" width="1.643" height="3.121" transform="matrix(-1, -0.001, 0.001, -1, 383.652, 383.947)" fill="#3f3d56"/>
    <rect id="Rectangle_120" data-name="Rectangle 120" width="1.643" height="3.121" transform="matrix(-0.001, 1, -1, -0.001, 358.033, 376.376)" fill="#3f3d56"/>
    <path id="Path_396" data-name="Path 396" d="M0,0H.181A3.433,3.433,0,0,1,3.614,3.433h0A3.433,3.433,0,0,1,.181,6.867H0V0Z" transform="matrix(-1, -0.001, 0.001, -1, 356.878, 377.098)" fill="#3f3d56"/>
    <path id="Path_397" data-name="Path 397" d="M724.02,745.45a5.307,5.307,0,0,0,2.9-10.047,13.008,13.008,0,0,0-2.721,7.164Z" transform="translate(-395.002 -354.79)" fill="#3f3d56"/>
    <path id="Path_398" data-name="Path 398" d="M651.813,628.524l6.276,9.33,0-4.393-3.32-4.933Z" transform="translate(-274.43 -264.625)" fill="#f2f2f2"/>
    <path id="Path_399" data-name="Path 399" d="M683.255,628.542l4.832,7.18v-4.393l-1.872-2.784Z" transform="translate(-287.668 -264.633)" fill="#f2f2f2"/>
    <path id="Path_400" data-name="Path 400" d="M637.649,628.518l6.522,9.694h2.959l-6.521-9.694Z" transform="translate(-268.467 -264.622)" fill="#f2f2f2"/>
    <path id="Path_401" data-name="Path 401" d="M548.424,78.619l-.067.036a4.951,4.951,0,0,1-4.721.017l-.125-.067a4.975,4.975,0,0,0-4.715.016l-.062.034a4.951,4.951,0,0,1-4.721.017l-.13-.069a4.946,4.946,0,0,0-4.669-.008c-2.2,1.182-5.164,3.2-5.151,5.487a2.648,2.648,0,0,0,.015.27c.255,2.371,7.989,2.975,12.238,1.858a21.629,21.629,0,0,0,9.623,0c4.23,1.135,12.122.485,12.352-1.913a2.649,2.649,0,0,0,.012-.27c-.013-2.284-3.008-4.285-5.217-5.451a4.941,4.941,0,0,0-4.663.044Z" transform="translate(-310.815 -78.012)" fill="#e6e6e6"/>
    <path id="Path_402" data-name="Path 402" d="M916.424,213.835l-.067.036a4.951,4.951,0,0,1-4.721.017l-.125-.067a4.975,4.975,0,0,0-4.715.016l-.062.034a4.951,4.951,0,0,1-4.721.017l-.13-.069a4.946,4.946,0,0,0-4.669-.008c-2.2,1.182-5.164,3.2-5.151,5.487a2.665,2.665,0,0,0,.015.27c.255,2.371,7.989,2.975,12.238,1.858a21.629,21.629,0,0,0,9.623,0c4.23,1.135,12.121.485,12.352-1.913a2.631,2.631,0,0,0,.012-.27c-.013-2.284-3.008-4.285-5.217-5.451a4.941,4.941,0,0,0-4.663.044Z" transform="translate(-465.753 -134.942)" fill="#e6e6e6"/>
    <path id="Path_403" data-name="Path 403" d="M271.994,221.383l-.067.036a4.951,4.951,0,0,1-4.721.017l-.125-.067a4.975,4.975,0,0,0-4.715.016l-.062.034a4.951,4.951,0,0,1-4.721.017l-.13-.069a4.946,4.946,0,0,0-4.669-.008c-2.2,1.182-5.164,3.2-5.151,5.487a2.656,2.656,0,0,0,.015.27c.255,2.371,7.989,2.975,12.238,1.858a21.629,21.629,0,0,0,9.623,0c4.23,1.135,12.121.485,12.352-1.913a2.666,2.666,0,0,0,.012-.27c-.013-2.284-3.008-4.285-5.217-5.451a4.941,4.941,0,0,0-4.663.044Z" transform="translate(-194.431 -138.119)" fill="#e6e6e6"/>
    <rect id="Rectangle_121" data-name="Rectangle 121" width="10.35" height="1.643" transform="translate(53.427 420.728)" fill="#3f3d56"/>
    <path id="Path_404" data-name="Path 404" d="M333,776.09l-2.135.494-81.154.043-.73-1.7a17.161,17.161,0,0,1-1.262-9.28c.35-2.348,1.225-4.682,3.215-5.7l3.6-23.987,44.9-.08L316.8,749.9s8.194-.147,12.646,5.395a13.009,13.009,0,0,1,2.721,7.164l.176,2.883Z" transform="translate(-194.395 -354.994)" fill="#6c63ff"/>
    <circle id="Ellipse_118" data-name="Ellipse 118" cx="10.021" cy="10.021" r="10.021" transform="translate(110.76 410.674)" fill="#3f3d56"/>
    <circle id="Ellipse_119" data-name="Ellipse 119" cx="5.274" cy="5.274" r="5.274" transform="translate(115.507 415.421)" fill="#ccc"/>
    <circle id="Ellipse_120" data-name="Ellipse 120" cx="10.021" cy="10.021" r="10.021" transform="translate(61.312 410.701)" fill="#3f3d56"/>
    <circle id="Ellipse_121" data-name="Ellipse 121" cx="5.274" cy="5.274" r="5.274" transform="translate(66.059 415.447)" fill="#ccc"/>
    <path id="Path_405" data-name="Path 405" d="M176.087,672.2l-24.242.011h-2.959l-5,0v-.365l0-4.393,0-4.933h3.324l2.959,0,5.241,0h2.959l6.051,0Z" transform="translate(-60.579 -278.935)" fill="#fff"/>
    <path id="Path_406" data-name="Path 406" d="M127.76,672.228l-12.812.007,0-2.514v-4.393l0-2.784h1.876l2.959,0,7.98,0Z" transform="translate(-48.394 -278.945)" fill="#fff"/>
    <rect id="Rectangle_122" data-name="Rectangle 122" width="1.643" height="3.121" transform="translate(83.315 400.508)" fill="#3f3d56"/>
    <rect id="Rectangle_123" data-name="Rectangle 123" width="1.643" height="3.121" transform="matrix(0.001, 1, -1, 0.001, 112.06, 396.056)" fill="#3f3d56"/>
    <path id="Path_407" data-name="Path 407" d="M190.143,673.457h.181a3.433,3.433,0,0,1,3.433,3.433h0a3.433,3.433,0,0,1-3.433,3.433h-.181v-6.867Z" transform="translate(-80.055 -283.543)" fill="#3f3d56"/>
    <path id="Path_408" data-name="Path 408" d="M389.735,779.45a5.307,5.307,0,0,1-2.9-10.047,13.008,13.008,0,0,1,2.721,7.164Z" transform="translate(-251.783 -369.106)" fill="#3f3d56"/>
    <path id="Path_409" data-name="Path 409" d="M150.169,662.524l-6.276,9.33,0-4.393,3.32-4.933Z" transform="translate(-60.581 -278.94)" fill="#f2f2f2"/>
    <path id="Path_410" data-name="Path 410" d="M119.78,662.543l-4.832,7.18V665.33l1.872-2.784Z" transform="translate(-48.396 -278.948)" fill="#f2f2f2"/>
    <path id="Path_411" data-name="Path 411" d="M162,662.518l-6.522,9.695h-2.959l6.522-9.695Z" transform="translate(-64.217 -278.937)" fill="#f2f2f2"/>
    <path id="Path_412" data-name="Path 412" d="M727.329,512.37l-12.651-16.265,7.356-5.722,5.99,7.7,20.235-21.36,6.766,6.41Z" transform="translate(-300.898 -200.714)" fill="#fff"/>
    <path id="Path_413" data-name="Path 413" d="M6.34,480.325H105.4v72.943h-.06V567.79L90.822,553.268H6.34Z" transform="translate(-2.669 -202.229)" fill="#6c63ff"/>
    <path id="Path_414" data-name="Path 414" d="M77.843,547.248,65.192,530.984l7.357-5.723,5.989,7.7L98.773,511.6l6.766,6.41Z" transform="translate(-27.448 -215.398)" fill="#fff"/>
  </g>
</svg>
