<svg xmlns="http://www.w3.org/2000/svg" width="515.014" height="307.883" viewBox="0 0 515.014 307.883">
  <g id="Group_1" data-name="Group 1" transform="translate(0)">
    <path id="Path_3" data-name="Path 3" d="M824.4,636.246c-6.594-5.571-10.6-14.373-9.548-22.941s7.556-16.445,15.994-18.264,18.057,3.217,20.62,11.46c1.411-15.893,3.036-32.451,11.485-45.984,7.651-12.255,20.9-21.023,35.263-22.592s29.481,4.356,38.438,15.691,11.15,27.814,4.877,40.828c-4.621,9.587-13.135,16.721-22.055,22.525a142.341,142.341,0,0,1-97.352,21.3Z" transform="translate(-430.09 -331.821)" fill="#f2f2f2"/>
    <path id="Path_4" data-name="Path 4" d="M949.088,545.784A234.87,234.87,0,0,0,880.077,639.1c-.659,1.613,1.961,2.315,2.612.72A232.255,232.255,0,0,1,951,547.7C952.356,546.6,950.429,544.693,949.088,545.784Z" transform="translate(-456.73 -334.997)" fill="#fff"/>
    <path id="Path_5" data-name="Path 5" d="M330.791,608.312c9.056-7.652,14.557-19.741,13.115-31.509s-10.378-22.587-21.968-25.086-24.8,4.419-28.322,15.741c-1.937-21.828-4.17-44.571-15.775-63.159-10.508-16.832-28.709-28.875-48.434-31.03s-40.493,5.983-52.795,21.552-15.314,38.2-6.7,56.077c6.347,13.167,18.04,22.967,30.292,30.939a195.5,195.5,0,0,0,133.713,29.252" transform="translate(-165 -305.402)" fill="#f2f2f2"/>
    <path id="Path_6" data-name="Path 6" d="M215.318,484.064A319.869,319.869,0,0,1,259.9,528.329a324.419,324.419,0,0,1,35.155,52.029A323.08,323.08,0,0,1,310.1,612.233c.9,2.215-2.693,3.18-3.587.989A317.515,317.515,0,0,0,277.5,558.33a319.5,319.5,0,0,0-38.91-48.067,318.751,318.751,0,0,0-25.908-23.569C210.829,485.182,213.475,482.564,215.318,484.064Z" transform="translate(-184.2 -309.763)" fill="#fff"/>
    <path id="Path_7" data-name="Path 7" d="M640.569,497.163H424.5V275.47a85.636,85.636,0,0,1,85.54-85.54h44.99a85.636,85.636,0,0,1,85.54,85.54Z" transform="translate(-270.884 -189.931)" fill="#f2f2f2"/>
    <path id="Path_8" data-name="Path 8" d="M595.579,497.165H424.5V275.472a84.877,84.877,0,0,1,16.336-50.284c.393-.536.785-1.064,1.189-1.587A85.518,85.518,0,0,1,460.23,205.93c.391-.284.783-.563,1.181-.843a85.343,85.343,0,0,1,18.631-9.743c.391-.148.79-.3,1.188-.439a85.256,85.256,0,0,1,18.415-4.343c.389-.053.789-.095,1.189-.136a86.6,86.6,0,0,1,18.414,0c.4.042.8.083,1.192.137a85.241,85.241,0,0,1,18.41,4.342c.4.142.8.291,1.189.44a85.133,85.133,0,0,1,18.414,9.6c.4.273.8.552,1.188.832a86.432,86.432,0,0,1,10.883,9.213,85.448,85.448,0,0,1,7.532,8.614c.4.521.795,1.05,1.187,1.585a84.879,84.879,0,0,1,16.336,50.285Z" transform="translate(-270.884 -189.932)" fill="#ccc"/>
    <circle id="Ellipse_3" data-name="Ellipse 3" cx="9.472" cy="9.472" r="9.472" transform="translate(301.313 189.134)" fill="#6c63ff"/>
    <path id="Path_9" data-name="Path 9" d="M587.216,488.488h-7.257l-3.453-27.993h10.712Z" transform="translate(-235.232 -187.896)" fill="#ffb8b8"/>
    <path id="Path_10" data-name="Path 10" d="M567.507,504.28h14v8.813H558.695A8.813,8.813,0,0,1,567.507,504.28Z" transform="translate(-227.964 -205.761)" fill="#2f2e41"/>
    <path id="Path_11" data-name="Path 11" d="M648.217,488.488h-7.258l-3.453-27.993h10.712Z" transform="translate(-260.122 -187.896)" fill="#ffb8b8"/>
    <path id="Path_12" data-name="Path 12" d="M628.507,504.28h14v8.813H619.695A8.813,8.813,0,0,1,628.507,504.28Z" transform="translate(-252.854 -205.761)" fill="#2f2e41"/>
    <path id="Path_13" data-name="Path 13" d="M697.341,475.267a6.359,6.359,0,0,1,2.67-9.379l24.671-68,12.14,6.625L708.653,469.5a6.394,6.394,0,0,1-11.312,5.77Z" transform="translate(-381.763 -274.785)" fill="#ffb8b8"/>
    <path id="Path_14" data-name="Path 14" d="M807.888,493.988a6.359,6.359,0,0,1-1.713-9.6l-7.643-71.93,13.815.631,3.177,70.753a6.394,6.394,0,0,1-7.636,10.146Z" transform="translate(-423.501 -280.729)" fill="#ffb8b8"/>
    <circle id="Ellipse_4" data-name="Ellipse 4" cx="14.539" cy="14.539" r="14.539" transform="translate(347.809 81.432)" fill="#ffb8b8"/>
    <path id="Path_15" data-name="Path 15" d="M783.966,466.7H740.133l.053-.341c.079-.51,7.812-51.169,2.109-67.742a6.993,6.993,0,0,1,3.593-8.633h0c8.152-3.839,23.8-8.566,37.01,2.906a16.713,16.713,0,0,1,5.6,13.85Z" transform="translate(-399.671 -269.8)" fill="#6c63ff"/>
    <path id="Path_16" data-name="Path 16" d="M740.752,426.027l-19.734-4,9.25-21.921a8.286,8.286,0,0,1,16.046,4.142Z" transform="translate(-391.872 -273.151)" fill="#6c63ff"/>
    <path id="Path_17" data-name="Path 17" d="M796.12,434.518l-1.186-27.2c-.9-5.112,2.027-9.945,6.528-10.735s8.9,2.759,9.8,7.909l4.459,25.412Z" transform="translate(-421.966 -274.208)" fill="#6c63ff"/>
    <path id="Path_18" data-name="Path 18" d="M780.88,517.049c7.053,26.862,7.822,61.014,5.92,98.267l-9.471-1.184L760.161,543.1l-9.472,72.22-10.655-.592c-3.183-39.088-6.283-72.644-1.184-94.715Z" transform="translate(-398.044 -323.405)" fill="#2f2e41"/>
    <path id="Path_19" data-name="Path 19" d="M774.654,348.65c-2.713,2.889-7.75,1.338-8.1-2.609a4.757,4.757,0,0,1,.006-.921c.183-1.748,1.193-3.336.951-5.182a2.719,2.719,0,0,0-.5-1.272c-2.162-2.894-7.235,1.295-9.275-1.326-1.251-1.607.219-4.136-.74-5.932-1.267-2.37-5.019-1.2-7.372-2.5-2.618-1.444-2.461-5.461-.738-7.9a12.434,12.434,0,0,1,9.426-4.8,25.288,25.288,0,0,1,10.651,2.079c3.86,1.5,7.688,3.584,10.064,6.978,2.889,4.128,3.167,9.677,1.722,14.5C779.868,342.7,776.869,346.29,774.654,348.65Z" transform="translate(-402.726 -241.441)" fill="#2f2e41"/>
    <path id="Path_20" data-name="Path 20" d="M703.249,708.6H266.2a.7.7,0,0,1,0-1.41H703.249a.7.7,0,1,1,0,1.41Z" transform="translate(-206.006 -400.989)" fill="#3f3d56"/>
    <path id="Path_21" data-name="Path 21" d="M578.3,476.8H501.348A3.827,3.827,0,0,1,497.5,473V301.228a3.827,3.827,0,0,1,3.848-3.8H578.3a3.827,3.827,0,0,1,3.848,3.8V473A3.827,3.827,0,0,1,578.3,476.8Z" transform="translate(-300.67 -233.794)" fill="#fff"/>
    <rect id="Rectangle_3" data-name="Rectangle 3" width="84.652" height="1.184" transform="translate(196.83 119.217)" fill="#ccc"/>
    <rect id="Rectangle_4" data-name="Rectangle 4" width="84.652" height="1.184" transform="translate(197.126 186.766)" fill="#ccc"/>
    <rect id="Rectangle_5" data-name="Rectangle 5" width="1.184" height="179.959" transform="translate(223.469 63.637)" fill="#ccc"/>
    <rect id="Rectangle_6" data-name="Rectangle 6" width="1.184" height="179.959" transform="translate(253.067 63.637)" fill="#ccc"/>
  </g>
</svg>
